<?xml version="1.0" encoding="UTF-8" standalone="no"?>
<svg
   xmlns:dc="http://purl.org/dc/elements/1.1/"
   xmlns:cc="http://creativecommons.org/ns#"
   xmlns:rdf="http://www.w3.org/1999/02/22-rdf-syntax-ns#"
   xmlns:svg="http://www.w3.org/2000/svg"
   xmlns="http://www.w3.org/2000/svg"
   xmlns:sodipodi="http://sodipodi.sourceforge.net/DTD/sodipodi-0.dtd"
   xmlns:inkscape="http://www.inkscape.org/namespaces/inkscape"
   version="1.1"
   viewBox="0 0 325.56693 355.48822"
   stroke-miterlimit="10"
   id="svg87"
   sodipodi:docname="opio_sample_proto.svg"
   width="325.56693"
   height="355.48822"
   style="fill:none;stroke:none;stroke-linecap:square;stroke-miterlimit:10"
   inkscape:version="0.92.5 (2060ec1f9f, 2020-04-08)">
  <metadata
     id="metadata93">
    <rdf:RDF>
      <cc:Work
         rdf:about="">
        <dc:format>image/svg+xml</dc:format>
        <dc:type
           rdf:resource="http://purl.org/dc/dcmitype/StillImage" />
      </cc:Work>
    </rdf:RDF>
  </metadata>
  <defs
     id="defs91" />
  <sodipodi:namedview
     pagecolor="#ffffff"
     bordercolor="#666666"
     borderopacity="1"
     objecttolerance="10"
     gridtolerance="10"
     guidetolerance="10"
     inkscape:pageopacity="0"
     inkscape:pageshadow="2"
     inkscape:window-width="1872"
     inkscape:window-height="1016"
     id="namedview89"
     showgrid="false"
     inkscape:zoom="0.6180637"
     inkscape:cx="618.32311"
     inkscape:cy="54.324543"
     inkscape:window-x="48"
     inkscape:window-y="27"
     inkscape:window-maximized="1"
     inkscape:current-layer="svg87" />
  <clipPath
     id="g37f00b1b80b_0_1223.0">
    <path
       d="M 0,0 H 1080 V 1080 H 0 Z"
       id="path2"
       inkscape:connector-curvature="0"
       style="clip-rule:nonzero" />
  </clipPath>
  <path
     style="fill:#f3f3f3;fill-rule:evenodd"
     inkscape:connector-curvature="0"
     id="path7"
     d="m 4.9092401,354.98821 c 2.4351568,0 4.4092417,-1.97409 4.4092417,-4.40924 H 4.9092401 c 1.2175784,0 2.2046208,-0.98703 2.2046208,-2.20462 0,-1.21759 -0.9870424,-2.20462 -2.2046208,-2.20462 H 9.3184818 V 4.9092602 v 0 c 0,-2.4351568 1.9740842,-4.4092417 4.4092412,-4.4092417 H 320.65769 c 2.43515,0 4.40924,1.9740847 4.40924,4.4092417 0,2.4351568 -1.97409,4.4092417 -4.40924,4.4092417 h -4.40925 V 350.57897 c 0,2.43515 -1.97409,4.40924 -4.40924,4.40924 z M 18.136965,4.9092617 v 0 c 0,2.4351568 -1.974085,4.4092417 -4.409242,4.4092417 -1.217578,0 -2.20462,-0.9870424 -2.20462,-2.2046208 0,-1.2175784 0.987042,-2.2046208 2.20462,-2.2046208 z" />
  <path
     style="fill:#c2c2c2;fill-rule:evenodd"
     inkscape:connector-curvature="0"
     id="path9"
     d="m 18.136965,4.9092534 v 0 c 0,2.4351568 -1.974085,4.4092417 -4.409242,4.4092417 -1.217578,0 -2.20462,-0.9870424 -2.20462,-2.2046208 0,-1.2175784 0.987042,-2.2046208 2.20462,-2.2046208 z M 9.3184824,350.57895 c 0,2.43515 -1.9740849,4.40924 -4.4092417,4.40924 -2.4351568,0 -4.4092417,-1.97409 -4.4092417,-4.40924 0,-2.43515 1.9740847,-4.40924 4.4092417,-4.40924 v 0 c 1.2175784,0 2.2046208,0.98703 2.2046208,2.20462 0,1.21759 -0.9870424,2.20462 -2.2046208,2.20462 z" />
  <path
     style="fill:#000000;fill-opacity:0;fill-rule:evenodd"
     inkscape:connector-curvature="0"
     id="path11"
     d="M 9.3184814,346.16971 V 4.9092417 v 0 C 9.3184814,2.4740849 11.292566,0.5 13.727723,0.5 H 320.65768 c 2.43515,0 4.40925,1.9740847 4.40925,4.4092417 0,2.4351568 -1.9741,4.4092417 -4.40925,4.4092417 h -4.40924 V 350.57895 c 0,2.43515 -1.97409,4.40924 -4.40924,4.40924 H 4.9092417 C 2.4740849,354.98819 0.5,353.0141 0.5,350.57895 c 0,-2.43515 1.9740847,-4.40924 4.4092417,-4.40924 z M 13.727723,0.5000117 v 0 c 2.435156,0 4.409241,1.9740847 4.409241,4.4092417 0,2.4351568 -1.974085,4.4092417 -4.409241,4.4092417 -1.217578,0 -2.204621,-0.9870424 -2.204621,-2.2046208 0,-1.2175784 0.987043,-2.2046208 2.204621,-2.2046208 h 4.409241 M 316.24845,9.3184952 H 13.727724 M 4.9092418,346.16972 v 0 c 1.2175784,0 2.2046208,0.98703 2.2046208,2.20462 0,1.21759 -0.9870424,2.20462 -2.2046208,2.20462 h 4.4092417 m -4.4092417,4.40925 c 2.4351568,0 4.4092417,-1.9741 4.4092417,-4.40925 v -4.40924" />
  <path
     style="fill-rule:evenodd;stroke:#595959;stroke-width:1;stroke-linecap:butt;stroke-linejoin:round"
     inkscape:connector-curvature="0"
     id="path13"
     d="M 9.3184814,346.16971 V 4.9092417 v 0 C 9.3184814,2.4740849 11.292566,0.5 13.727723,0.5 H 320.65768 c 2.43515,0 4.40925,1.9740847 4.40925,4.4092417 0,2.4351568 -1.9741,4.4092417 -4.40925,4.4092417 h -4.40924 V 350.57895 c 0,2.43515 -1.97409,4.40924 -4.40924,4.40924 H 4.9092417 C 2.4740849,354.98819 0.5,353.0141 0.5,350.57895 c 0,-2.43515 1.9740847,-4.40924 4.4092417,-4.40924 z M 13.727723,0.5000117 v 0 c 2.435156,0 4.409241,1.9740847 4.409241,4.4092417 0,2.4351568 -1.974085,4.4092417 -4.409241,4.4092417 -1.217578,0 -2.204621,-0.9870424 -2.204621,-2.2046208 0,-1.2175784 0.987043,-2.2046208 2.204621,-2.2046208 h 4.409241 M 316.24845,9.3184952 H 13.727724 M 4.9092418,346.16972 v 0 c 1.2175784,0 2.2046208,0.98703 2.2046208,2.20462 0,1.21759 -0.9870424,2.20462 -2.2046208,2.20462 h 4.4092417 m -4.4092417,4.40925 c 2.4351568,0 4.4092417,-1.9741 4.4092417,-4.40925 v -4.40924" />
  <path
     style="fill:#0000cd;fill-rule:nonzero"
     inkscape:connector-curvature="0"
     id="path15"
     d="m 24.849731,28.459746 q -0.390625,-0.25 -0.828125,-0.359375 -0.421875,-0.125 -0.890625,-0.125 -0.921875,0 -1.46875,0.296875 -0.25,0.140625 -0.25,0.296875 0,0.171875 0.328125,0.34375 0.25,0.125 1.125,0.25 1.59375,0.21875 2.21875,0.4375 0.8125,0.28125 1.25,0.859375 0.453125,0.5625 0.453125,1.203125 0,0.859377 -0.75,1.437502 -1.09375,0.84375 -2.828125,0.84375 -0.6875,0 -1.28125,-0.125 -0.59375,-0.125 -1.078125,-0.359375 -0.125,0.09375 -0.265625,0.15625 -0.125,0.04687 -0.265625,0.04687 -0.375,0 -0.59375,-0.234375 -0.21875,-0.25 -0.21875,-0.828125 v -0.546877 q 0,-0.578125 0.21875,-0.8125 0.21875,-0.25 0.578125,-0.25 0.296875,0 0.484375,0.15625 0.203125,0.15625 0.3125,0.546875 0.359375,0.3125 0.875,0.484375 0.515625,0.15625 1.1875,0.15625 1.109375,0 1.71875,-0.34375 0.28125,-0.171875 0.28125,-0.359375 0,-0.3125 -0.40625,-0.515625 -0.421875,-0.203125 -1.71875,-0.34375 -1.921875,-0.203125 -2.578125,-0.78125 -0.640625,-0.578125 -0.640625,-1.40625 0,-0.859375 0.71875,-1.4375 0.984375,-0.78125 2.578125,-0.78125 0.5625,0 1.0625,0.109375 0.515625,0.109375 0.984375,0.328125 0.15625,-0.109375 0.28125,-0.15625 0.125,-0.0625 0.234375,-0.0625 0.328125,0 0.546875,0.25 0.21875,0.234375 0.21875,0.8125 v 0.390625 q 0,0.53125 -0.125,0.71875 -0.25,0.359375 -0.671875,0.359375 -0.296875,0 -0.515625,-0.171875 -0.21875,-0.1875 -0.28125,-0.484375 z m 6.976562,5.156252 -2.765625,-5.437502 q -0.390625,-0.04687 -0.59375,-0.265625 -0.203125,-0.21875 -0.203125,-0.53125 0,-0.359375 0.234375,-0.578125 0.25,-0.21875 0.828125,-0.21875 h 1.46875 q 0.578125,0 0.8125,0.21875 0.25,0.21875 0.25,0.578125 0,0.359375 -0.25,0.578125 -0.234375,0.21875 -0.765625,0.21875 l 1.890627,3.6875 1.875,-3.6875 q -0.515625,0 -0.765625,-0.21875 -0.25,-0.21875 -0.25,-0.578125 0,-0.359375 0.25,-0.578125 0.25,-0.21875 0.828125,-0.21875 h 1.5 q 0.578125,0 0.8125,0.21875 0.25,0.21875 0.25,0.578125 0,0.328125 -0.21875,0.546875 -0.203125,0.21875 -0.609375,0.25 l -3.671875,7.250002 q 0.59375,0 0.78125,0.109375 0.375,0.25 0.375,0.6875 0,0.359375 -0.25,0.578125 -0.234375,0.21875 -0.8125,0.21875 h -3.500002 q -0.578125,0 -0.828125,-0.21875 -0.234375,-0.21875 -0.234375,-0.578125 0,-0.359375 0.234375,-0.578125 0.25,-0.21875 0.828125,-0.21875 h 1.59375 z m 8.882814,-7.031252 v 0.53125 q 0.4375,-0.375 0.953125,-0.5625 0.53125,-0.1875 1.15625,-0.1875 1.421875,0 2.25,0.890625 0.65625,0.703125 0.65625,1.84375 v 2.96875 q 0.5,0 0.734375,0.234375 0.25,0.218752 0.25,0.578127 0,0.34375 -0.25,0.578125 -0.234375,0.21875 -0.8125,0.21875 h -1.453125 q -0.578125,0 -0.828125,-0.21875 -0.234375,-0.234375 -0.234375,-0.59375 0,-0.34375 0.234375,-0.562502 0.25,-0.234375 0.75,-0.234375 v -3.015625 q 0,-0.53125 -0.28125,-0.765625 -0.359375,-0.3125 -1.09375,-0.3125 -0.5625,0 -0.984375,0.21875 -0.40625,0.203125 -1.046875,0.90625 v 2.96875 q 0.609375,0 0.796875,0.125 0.375,0.234375 0.375,0.687502 0,0.34375 -0.25,0.578125 -0.234375,0.21875 -0.8125,0.21875 h -1.828125 q -0.578125,0 -0.828125,-0.21875 -0.234375,-0.234375 -0.234375,-0.59375 0,-0.437502 0.375,-0.671877 0.1875,-0.125 0.796875,-0.125 v -3.890625 q -0.5,0 -0.75,-0.21875 -0.234375,-0.234375 -0.234375,-0.578125 0,-0.359375 0.234375,-0.578125 0.25,-0.21875 0.828125,-0.21875 z m 10.820313,1.59375 v 3.21875 q 0,0.515625 0.21875,0.671875 0.328125,0.265625 1.171875,0.265625 1.21875,0 2.265625,-0.53125 0.390625,-0.203125 0.625,-0.203125 0.3125,0 0.53125,0.234375 0.234375,0.234375 0.234375,0.578125 0,0.312502 -0.25,0.531252 -0.375,0.375 -1.515625,0.6875 -1.125,0.3125 -1.890625,0.3125 -1.5,0 -2.25,-0.640625 -0.734375,-0.65625 -0.734375,-1.593752 v -3.53125 h -0.578125 q -0.578125,0 -0.828125,-0.21875 -0.25,-0.21875 -0.25,-0.578125 0,-0.359375 0.25,-0.578125 0.25,-0.21875 0.828125,-0.21875 h 0.578125 v -1.453125 q 0,-0.578125 0.21875,-0.8125 0.21875,-0.25 0.578125,-0.25 0.359375,0 0.578125,0.25 0.21875,0.234375 0.21875,0.8125 v 1.453125 h 2.96875 q 0.578125,0 0.8125,0.21875 0.25,0.21875 0.25,0.578125 0,0.359375 -0.25,0.578125 -0.234375,0.21875 -0.8125,0.21875 z m 11.445312,5.500002 v -0.375 q -0.609375,0.3125 -1.34375,0.46875 -0.71875,0.171875 -1.3125,0.171875 -1.28125,0 -2.09375,-0.6875 -0.796875,-0.6875 -0.796875,-1.515627 0,-1 1.015625,-1.859375 1.03125,-0.875 2.84375,-0.875 0.734375,0 1.6875,0.15625 v -0.375 q 0,-0.359375 -0.3125,-0.578125 -0.3125,-0.234375 -1.171875,-0.234375 -0.71875,0 -1.84375,0.28125 -0.421875,0.09375 -0.65625,0.09375 -0.328125,0 -0.546875,-0.21875 -0.21875,-0.234375 -0.21875,-0.59375 0,-0.203125 0.07813,-0.34375 0.07813,-0.15625 0.21875,-0.25 0.140625,-0.09375 0.578125,-0.21875 0.59375,-0.15625 1.203125,-0.25 0.625,-0.109375 1.125,-0.109375 1.5,0 2.3125,0.65625 0.828122,0.640625 0.828122,1.75 v 3.296875 h 0.28125 q 0.578125,0 0.8125,0.234375 0.25,0.218752 0.25,0.578127 0,0.34375 -0.25,0.578125 -0.234375,0.21875 -0.8125,0.21875 z m 0,-2.875002 q -0.96875,-0.1875 -1.78125,-0.1875 -0.96875,0 -1.671875,0.484375 -0.4375,0.296875 -0.4375,0.609375 0,0.234375 0.203125,0.375 0.390625,0.25 1.078125,0.25 0.578125,0 1.296875,-0.21875 0.734375,-0.234375 1.3125,-0.625 z m 9.351559,-0.8125 2.4375,2.078125 q 0.4375,0.03125 0.65625,0.25 0.21875,0.218752 0.21875,0.562502 0,0.34375 -0.25,0.578125 -0.25,0.21875 -0.828125,0.21875 h -1.8125 q -0.578125,0 -0.828125,-0.21875 -0.25,-0.234375 -0.25,-0.59375 0,-0.28125 0.171875,-0.500002 0.1875,-0.21875 0.484375,-0.296875 l -1.1875,-1.03125 -1.21875,1.03125 q 0.359375,0.09375 0.515625,0.296875 0.171875,0.187502 0.171875,0.500002 0,0.359375 -0.25,0.59375 -0.234375,0.21875 -0.8125,0.21875 h -1.8125 q -0.578125,0 -0.828125,-0.21875 -0.234375,-0.234375 -0.234375,-0.59375 0,-0.328125 0.21875,-0.546877 0.21875,-0.21875 0.65625,-0.25 l 2.375,-2.09375 -2.109375,-1.796875 q -0.40625,-0.03125 -0.625,-0.25 -0.21875,-0.21875 -0.21875,-0.546875 0,-0.359375 0.25,-0.578125 0.25,-0.21875 0.828125,-0.21875 h 1.5 q 0.578125,0 0.8125,0.21875 0.25,0.21875 0.25,0.5625 0,0.46875 -0.4375,0.75 l 0.96875,0.8125 0.953125,-0.828125 q -0.421875,-0.296875 -0.421875,-0.703125 0,-0.375 0.234375,-0.59375 0.25,-0.21875 0.828125,-0.21875 h 1.484375 q 0.578125,0 0.828125,0.21875 0.25,0.21875 0.25,0.578125 0,0.328125 -0.21875,0.546875 -0.21875,0.21875 -0.640625,0.25 z" />
  <path
     style="fill:#ff0000;fill-rule:nonzero"
     inkscape:connector-curvature="0"
     id="path17"
     d="m 93.763792,28.412871 h -6.84375 q -0.578125,0 -0.828125,-0.21875 -0.234375,-0.234375 -0.234375,-0.59375 0,-0.34375 0.234375,-0.5625 0.25,-0.234375 0.828125,-0.234375 h 6.84375 q 0.578125,0 0.828125,0.234375 0.25,0.21875 0.25,0.578125 0,0.34375 -0.25,0.578125 -0.25,0.21875 -0.828125,0.21875 z m 0,3.015625 h -6.84375 q -0.578125,0 -0.828125,-0.21875 -0.234375,-0.21875 -0.234375,-0.578125 0,-0.359375 0.234375,-0.578125 0.25,-0.234375 0.828125,-0.234375 h 6.84375 q 0.578125,0 0.828125,0.234375 0.25,0.21875 0.25,0.578125 0,0.359375 -0.25,0.578125 -0.25,0.21875 -0.828125,0.21875 z" />
  <path
     style="fill:#ee00ff;fill-rule:nonzero"
     inkscape:connector-curvature="0"
     id="path19"
     d="m 106.81067,24.037871 h 2.07813 l -0.54688,3.796875 q -0.0469,0.296875 -0.17187,0.421875 -0.125,0.109375 -0.3125,0.109375 -0.20313,0 -0.32813,-0.109375 -0.125,-0.125 -0.17187,-0.421875 z m 3.35938,0 h 2.07812 l -0.54687,3.796875 q -0.0469,0.296875 -0.17188,0.421875 -0.125,0.109375 -0.3125,0.109375 -0.20312,0 -0.32812,-0.109375 -0.125,-0.125 -0.17188,-0.421875 z m 6.49218,2.875 v 1.1875 q 0.59375,-0.703125 1.26563,-1.0625 0.67187,-0.359375 1.57812,-0.359375 0.96875,0 1.78125,0.453125 0.82813,0.453125 1.28125,1.265625 0.45313,0.796875 0.45313,1.6875 0,1.421875 -1.01563,2.421877 -1.01562,1 -2.48437,1 -1.76563,0 -2.85938,-1.421877 v 3.953127 h 1.59375 q 0.23438,0 0.32813,0.09375 0.10937,0.09375 0.10937,0.234375 0,0.140625 -0.10937,0.234375 -0.0937,0.09375 -0.32813,0.09375 h -3.125 q -0.23437,0 -0.34375,-0.09375 -0.0937,-0.07813 -0.0937,-0.234375 0,-0.140625 0.0937,-0.234375 0.10938,-0.09375 0.34375,-0.09375 h 0.875 v -8.468752 h -0.875 q -0.23437,0 -0.34375,-0.09375 -0.0937,-0.09375 -0.0937,-0.234375 0,-0.140625 0.0937,-0.234375 0.10938,-0.09375 0.34375,-0.09375 z m 5.6875,3.171875 q 0,-1.125 -0.82812,-1.9375 -0.8125,-0.8125 -2,-0.8125 -1.20313,0 -2.03125,0.8125 -0.82813,0.8125 -0.82813,1.9375 0,1.140625 0.82813,1.953125 0.82812,0.812502 2.03125,0.812502 1.17187,0 2,-0.812502 0.82812,-0.8125 0.82812,-1.953125 z m 5.60157,-3.171875 v 1.65625 q 1.28125,-1.15625 1.92187,-1.484375 0.64063,-0.34375 1.17188,-0.34375 0.59375,0 1.09375,0.40625 0.5,0.390625 0.5,0.59375 0,0.140625 -0.0937,0.25 -0.0937,0.09375 -0.25,0.09375 -0.0781,0 -0.14063,-0.03125 -0.0469,-0.03125 -0.1875,-0.171875 -0.28125,-0.28125 -0.48437,-0.375 -0.20313,-0.109375 -0.39063,-0.109375 -0.4375,0 -1.04687,0.34375 -0.59375,0.34375 -2.09375,1.6875 v 3.593752 h 2.90625 q 0.25,0 0.34375,0.09375 0.10937,0.07813 0.10937,0.234375 0,0.140625 -0.10937,0.234375 -0.0937,0.09375 -0.34375,0.09375 h -5.14063 q -0.23437,0 -0.34375,-0.09375 -0.0937,-0.09375 -0.0937,-0.234375 0,-0.125 0.0937,-0.21875 0.0937,-0.09375 0.34375,-0.09375 h 1.57813 v -5.468752 h -1.20313 q -0.23437,0 -0.34375,-0.09375 -0.0937,-0.09375 -0.0937,-0.234375 0,-0.140625 0.0937,-0.234375 0.0937,-0.09375 0.34375,-0.09375 z m 14.05468,3.390625 q 0,1.5 -1.07812,2.578127 -1.0625,1.0625 -2.57813,1.0625 -1.53125,0 -2.60937,-1.0625 -1.0625,-1.078127 -1.0625,-2.578127 0,-1.5 1.0625,-2.5625 1.07812,-1.0625 2.60937,-1.0625 1.51563,0 2.57813,1.0625 1.07812,1.0625 1.07812,2.5625 z m -0.65625,0 q 0,-1.234375 -0.89062,-2.09375 -0.875,-0.875 -2.125,-0.875 -1.25,0 -2.125,0.875 -0.875,0.875 -0.875,2.09375 0,1.21875 0.875,2.09375 0.875,0.875002 2.125,0.875002 1.25,0 2.125,-0.859377 0.89062,-0.875 0.89062,-2.109375 z m 5.24219,-3.390625 h 3.5625 q 0.23438,0 0.32813,0.09375 0.10937,0.09375 0.10937,0.234375 0,0.140625 -0.10937,0.234375 -0.0937,0.09375 -0.32813,0.09375 h -3.5625 v 4.375 q 0,0.562502 0.45313,0.953127 0.46875,0.375 1.34375,0.375 0.67187,0 1.4375,-0.1875 0.78125,-0.203125 1.20312,-0.453125 0.15625,-0.109375 0.26563,-0.109375 0.125,0 0.21875,0.109375 0.0937,0.09375 0.0937,0.21875 0,0.125 -0.10938,0.21875 -0.25,0.265625 -1.21875,0.578125 -0.95312,0.296875 -1.84375,0.296875 -1.14062,0 -1.82812,-0.546875 -0.67188,-0.546875 -0.67188,-1.453127 v -4.375 h -1.21875 q -0.23437,0 -0.34375,-0.09375 -0.0937,-0.09375 -0.0937,-0.234375 0,-0.140625 0.0937,-0.234375 0.10938,-0.09375 0.34375,-0.09375 h 1.21875 v -1.9375 q 0,-0.234375 0.0937,-0.328125 0.0937,-0.109375 0.23438,-0.109375 0.14062,0 0.23437,0.109375 0.0937,0.09375 0.0937,0.328125 z m 14.61719,3.390625 q 0,1.5 -1.07813,2.578127 -1.0625,1.0625 -2.57812,1.0625 -1.53125,0 -2.60938,-1.0625 -1.0625,-1.078127 -1.0625,-2.578127 0,-1.5 1.0625,-2.5625 1.07813,-1.0625 2.60938,-1.0625 1.51562,0 2.57812,1.0625 1.07813,1.0625 1.07813,2.5625 z m -0.65625,0 q 0,-1.234375 -0.89063,-2.09375 -0.875,-0.875 -2.125,-0.875 -1.25,0 -2.125,0.875 -0.875,0.875 -0.875,2.09375 0,1.21875 0.875,2.09375 0.875,0.875002 2.125,0.875002 1.25,0 2.125,-0.859377 0.89063,-0.875 0.89063,-2.109375 z m 7.94531,-1.96875 q 0.90625,0.40625 1.375,1.125 0.48438,0.703125 0.48438,1.46875 0,1.171875 -0.96875,2.078127 -0.95313,0.90625 -2.39063,0.90625 -0.84375,0 -1.75,-0.359375 -0.90625,-0.359375 -1.26562,-0.734375 -0.10938,-0.125 -0.10938,-0.265625 0,-0.125002 0.0781,-0.218752 0.0937,-0.09375 0.21875,-0.09375 0.125,0 0.28125,0.109375 1.21875,0.906252 2.5625,0.906252 1.14062,0 1.90625,-0.71875 0.78125,-0.718752 0.78125,-1.593752 0,-0.578125 -0.39063,-1.140625 -0.375,-0.5625 -1.09375,-0.890625 -0.70312,-0.328125 -1.42187,-0.328125 -0.23438,0 -0.34375,-0.07813 -0.0937,-0.09375 -0.0937,-0.25 0,-0.140625 0.0937,-0.234375 0.0937,-0.09375 0.29687,-0.09375 l 0.5625,0.01563 q 0.875,0 1.45313,-0.53125 0.57812,-0.546875 0.57812,-1.265625 0,-0.734375 -0.60937,-1.296875 -0.59375,-0.5625 -1.5625,-0.5625 -0.6875,0 -1.26563,0.234375 -0.5625,0.234375 -0.90625,0.640625 -0.125,0.15625 -0.1875,0.203125 -0.0625,0.03125 -0.15625,0.03125 -0.125,0 -0.21875,-0.09375 -0.0937,-0.09375 -0.0937,-0.21875 0,-0.3125 0.67188,-0.78125 0.95312,-0.671875 2.15625,-0.671875 1.23437,0 2.03125,0.75 0.79687,0.75 0.79687,1.78125 0,0.65625 -0.39062,1.25 -0.375,0.578125 -1.10938,0.921875 z m 5.52344,-4.296875 h 2.07812 l -0.54687,3.796875 q -0.0469,0.296875 -0.17188,0.421875 -0.125,0.109375 -0.3125,0.109375 -0.20312,0 -0.32812,-0.109375 -0.125,-0.125 -0.17188,-0.421875 z m 3.35937,0 h 2.07813 l -0.54688,3.796875 q -0.0469,0.296875 -0.17187,0.421875 -0.125,0.109375 -0.3125,0.109375 -0.20313,0 -0.32813,-0.109375 -0.125,-0.125 -0.17187,-0.421875 z" />
  <path
     style="fill:#ff0000;fill-rule:nonzero"
     inkscape:connector-curvature="0"
     id="path21"
     d="m 186.2013,26.912871 h 0.29687 q 0.4375,0 0.73438,0.3125 0.3125,0.3125 0.3125,0.734375 0,0.46875 -0.3125,0.78125 -0.3125,0.296875 -0.73438,0.296875 h -0.29687 q -0.4375,0 -0.75,-0.3125 -0.29688,-0.3125 -0.29688,-0.75 0,-0.453125 0.3125,-0.75 0.3125,-0.3125 0.73438,-0.3125 z m -1.14063,4.40625 h 2.0625 l -2.20312,3.625002 q -0.17188,0.265625 -0.26563,0.328125 -0.0937,0.07813 -0.23437,0.07813 -0.1875,0 -0.3125,-0.125 -0.125,-0.109375 -0.125,-0.265625 0,-0.09375 0.0469,-0.25 z" />
  <path
     style="fill:#0000cd;fill-rule:nonzero"
     inkscape:connector-curvature="0"
     id="path23"
     d="m 21.130981,51.787872 v 2.640625 h 0.96875 q 0.578125,0 0.8125,0.21875 0.25,0.21875 0.25,0.578125 0,0.359375 -0.25,0.578125 -0.234375,0.21875 -0.8125,0.21875 h -2.84375 q -0.578125,0 -0.828125,-0.21875 -0.25,-0.21875 -0.25,-0.578125 0,-0.359375 0.25,-0.578125 0.265625,-0.21875 0.828125,-0.21875 h 0.28125 v -7.25 h -0.28125 q -0.578125,0 -0.828125,-0.21875 -0.25,-0.21875 -0.25,-0.578125 0,-0.359375 0.25,-0.578125 0.25,-0.21875 0.828125,-0.21875 h 1.875 v 0.546875 q 0.5625,-0.390625 1.15625,-0.578125 0.609375,-0.1875 1.25,-0.1875 1.640625,0 2.796875,1.125 1.15625,1.109375 1.15625,2.546875 0,1.578125 -1.375,2.609375 -1.140625,0.859375 -2.5625,0.859375 -0.625,0 -1.234375,-0.171875 -0.59375,-0.1875 -1.1875,-0.546875 z m 4.75,-2.75 q 0,-0.328125 -0.265625,-0.84375 -0.265625,-0.53125 -0.8125,-0.875 -0.546875,-0.34375 -1.296875,-0.34375 -1.1875,0 -1.890625,0.890625 -0.484375,0.625 -0.484375,1.1875 0,0.640625 0.6875,1.25 0.6875,0.609375 1.6875,0.609375 1.015625,0 1.6875,-0.59375 0.6875,-0.609375 0.6875,-1.28125 z m 8.289064,3.640625 v -0.375 q -0.609375,0.3125 -1.34375,0.46875 -0.718752,0.171875 -1.312502,0.171875 -1.28125,0 -2.09375,-0.6875 -0.796875,-0.6875 -0.796875,-1.515625 0,-1 1.015625,-1.859375 1.03125,-0.875 2.84375,-0.875 0.734377,0 1.687502,0.15625 v -0.375 q 0,-0.359375 -0.3125,-0.578125 -0.3125,-0.234375 -1.171875,-0.234375 -0.718752,0 -1.843752,0.28125 -0.421875,0.09375 -0.65625,0.09375 -0.328125,0 -0.546875,-0.21875 -0.21875,-0.234375 -0.21875,-0.59375 0,-0.203125 0.07813,-0.34375 0.07813,-0.15625 0.21875,-0.25 0.140625,-0.09375 0.578125,-0.21875 0.59375,-0.15625 1.203125,-0.25 0.625,-0.109375 1.125002,-0.109375 1.5,0 2.3125,0.65625 0.828125,0.640625 0.828125,1.75 v 3.296875 h 0.28125 q 0.578125,0 0.8125,0.234375 0.25,0.21875 0.25,0.578125 0,0.34375 -0.25,0.578125 -0.234375,0.21875 -0.8125,0.21875 z m 0,-2.875 q -0.96875,-0.1875 -1.781252,-0.1875 -0.96875,0 -1.671875,0.484375 -0.4375,0.296875 -0.4375,0.609375 0,0.234375 0.203125,0.375 0.390625,0.25 1.078125,0.25 0.578125,0 1.296877,-0.21875 0.734375,-0.234375 1.3125,-0.625 z m 10.648437,-3.9375 q 0.296875,-0.265625 0.59375,-0.265625 0.34375,0 0.5625,0.25 0.234375,0.234375 0.234375,0.8125 v 1.03125 q 0,0.578125 -0.234375,0.828125 -0.21875,0.234375 -0.578125,0.234375 -0.328125,0 -0.546875,-0.1875 -0.171875,-0.140625 -0.265625,-0.578125 -0.09375,-0.4375 -0.453125,-0.640625 -0.625,-0.375 -1.609375,-0.375 -1.140625,0 -1.828125,0.671875 -0.671875,0.65625 -0.671875,1.671875 0,0.9375 0.65625,1.484375 0.65625,0.53125 2.171875,0.53125 1,0 1.640625,-0.203125 0.375,-0.125 0.703125,-0.421875 0.34375,-0.296875 0.609375,-0.296875 0.328125,0 0.5625,0.25 0.25,0.234375 0.25,0.5625 0,0.53125 -0.734375,1 -1.078125,0.71875 -3.15625,0.71875 -1.859375,0 -2.90625,-0.78125 -1.40625,-1.03125 -1.40625,-2.84375 0,-1.703125 1.140625,-2.828125 1.140625,-1.125 2.984375,-1.125 0.65625,0 1.21875,0.125 0.578125,0.125 1.0625,0.375 z m 5.789063,4.140625 v 2.671875 h -1.875 q -0.578125,0 -0.828125,-0.21875 -0.234375,-0.234375 -0.234375,-0.59375 0,-0.34375 0.25,-0.5625 0.25,-0.234375 0.8125,-0.234375 h 0.28125 v -6.921875 h -0.28125 q -0.578125,0 -0.828125,-0.21875 -0.234375,-0.234375 -0.234375,-0.59375 0,-0.34375 0.234375,-0.5625 0.25,-0.234375 0.828125,-0.234375 h 1.875 v 5.40625 l 1.25,-1.015625 q -0.1875,-0.328125 -0.1875,-0.546875 0,-0.359375 0.234375,-0.578125 0.25,-0.21875 0.828125,-0.21875 h 1.828125 q 0.578125,0 0.8125,0.21875 0.25,0.21875 0.25,0.578125 0,0.359375 -0.25,0.578125 -0.234375,0.21875 -0.8125,0.21875 h -0.453125 l -1.9375,1.578125 2.609375,2.3125 h 0.46875 q 0.578125,0 0.828125,0.234375 0.25,0.21875 0.25,0.578125 0,0.34375 -0.25,0.578125 -0.25,0.21875 -0.828125,0.21875 h -1.84375 q -0.578125,0 -0.828125,-0.21875 -0.234375,-0.234375 -0.234375,-0.59375 0,-0.296875 0.265625,-0.59375 l -1.703125,-1.5 z m 12.367187,2.671875 v -0.375 q -0.609375,0.3125 -1.34375,0.46875 -0.71875,0.171875 -1.3125,0.171875 -1.28125,0 -2.09375,-0.6875 -0.796875,-0.6875 -0.796875,-1.515625 0,-1 1.015625,-1.859375 1.03125,-0.875 2.84375,-0.875 0.734375,0 1.6875,0.15625 v -0.375 q 0,-0.359375 -0.3125,-0.578125 -0.3125,-0.234375 -1.171875,-0.234375 -0.71875,0 -1.84375,0.28125 -0.421875,0.09375 -0.65625,0.09375 -0.328125,0 -0.546875,-0.21875 -0.21875,-0.234375 -0.21875,-0.59375 0,-0.203125 0.07813,-0.34375 0.07813,-0.15625 0.21875,-0.25 0.140625,-0.09375 0.578125,-0.21875 0.59375,-0.15625 1.203125,-0.25 0.625,-0.109375 1.125,-0.109375 1.5,0 2.3125,0.65625 0.828122,0.640625 0.828122,1.75 v 3.296875 h 0.28125 q 0.578125,0 0.8125,0.234375 0.25,0.21875 0.25,0.578125 0,0.34375 -0.25,0.578125 -0.234375,0.21875 -0.8125,0.21875 z m 0,-2.875 q -0.96875,-0.1875 -1.78125,-0.1875 -0.96875,0 -1.671875,0.484375 -0.4375,0.296875 -0.4375,0.609375 0,0.234375 0.203125,0.375 0.390625,0.25 1.078125,0.25 0.578125,0 1.296875,-0.21875 0.734375,-0.234375 1.3125,-0.625 z m 9.914059,-3.75 v -0.46875 h 1.875 q 0.578125,0 0.828125,0.21875 0.25,0.21875 0.25,0.578125 0,0.359375 -0.25,0.578125 -0.25,0.21875 -0.828125,0.21875 h -0.265625 v 5.84375 q 0,0.84375 -0.359375,1.46875 -0.359375,0.625 -1.09375,1.078125 -0.734375,0.453125 -1.65625,0.453125 h -1.8125 q -0.578125,0 -0.828125,-0.21875 -0.234375,-0.21875 -0.234375,-0.578125 0,-0.359375 0.234375,-0.578125 0.25,-0.21875 0.828125,-0.21875 h 1.765625 q 0.734375,0 1.140625,-0.40625 0.40625,-0.390625 0.40625,-1 v -0.796875 q -0.53125,0.34375 -1.078125,0.515625 -0.546875,0.1875 -1.125,0.1875 -1.640625,0 -2.75,-1.09375 -1.09375,-1.09375 -1.09375,-2.703125 0,-1.609375 1.09375,-2.6875 1.109375,-1.09375 2.75,-1.09375 0.609375,0 1.15625,0.171875 0.546875,0.171875 1.046875,0.53125 z m 0,3.078125 q 0,-0.890625 -0.65625,-1.53125 -0.65625,-0.65625 -1.5625,-0.65625 -0.921875,0 -1.578125,0.65625 -0.640625,0.640625 -0.640625,1.53125 0,0.890625 0.640625,1.53125 0.65625,0.640625 1.578125,0.640625 0.90625,0 1.5625,-0.640625 0.65625,-0.640625 0.65625,-1.53125 z m 11.867188,0.8125 h -6.578125 q 0.25,0.625 0.890625,1.015625 0.640625,0.375 1.71875,0.375 0.890625,0 2.375,-0.390625 0.609375,-0.15625 0.84375,-0.15625 0.3125,0 0.53125,0.234375 0.21875,0.21875 0.21875,0.5625 0,0.3125 -0.234375,0.53125 -0.3125,0.296875 -1.53125,0.5625 -1.203125,0.265625 -2.3125,0.265625 -1.921875,0 -3.078125,-1.09375 -1.15625,-1.09375 -1.15625,-2.671875 0,-1.6875 1.25,-2.75 1.25,-1.0625 2.875,-1.0625 0.96875,0 1.78125,0.34375 0.828125,0.34375 1.21875,0.75 0.5625,0.578125 0.9375,1.421875 0.25,0.59375 0.25,1.375 z m -1.78125,-1.609375 q -0.359375,-0.6875 -0.953125,-1.015625 -0.59375,-0.34375 -1.421875,-0.34375 -0.8125,0 -1.40625,0.34375 -0.59375,0.328125 -0.96875,1.015625 z" />
  <path
     style="fill:#000000;fill-rule:nonzero"
     inkscape:connector-curvature="0"
     id="path25"
     d="m 102.28723,44.194122 v -0.21875 q 0,-0.234375 0.0781,-0.328125 0.0937,-0.109375 0.25,-0.109375 0.14063,0 0.23438,0.109375 0.0937,0.09375 0.0937,0.328125 v 1.671875 q 0,0.234375 -0.0937,0.34375 -0.0937,0.09375 -0.23438,0.09375 -0.14062,0 -0.23437,-0.09375 -0.0937,-0.09375 -0.0937,-0.3125 -0.0469,-0.65625 -0.6875,-1.171875 -0.625,-0.53125 -1.656252,-0.53125 -1.09375,0 -1.734375,0.5625 -0.640625,0.5625 -0.640625,1.3125 0,0.390625 0.171875,0.71875 0.1875,0.3125 0.484375,0.515625 0.296875,0.203125 0.671875,0.328125 0.375,0.109375 1.171877,0.25 1.34375,0.21875 1.84375,0.4375 0.6875,0.3125 1.03125,0.859375 0.34375,0.53125 0.34375,1.265625 0,1.125 -0.90625,1.921875 -0.89063,0.796875 -2.406252,0.796875 -1.71875,0 -2.734375,-1.078125 v 0.375 q 0,0.234375 -0.09375,0.34375 -0.09375,0.09375 -0.234375,0.09375 -0.140625,0 -0.234375,-0.09375 -0.09375,-0.109375 -0.09375,-0.34375 v -1.8125 q 0,-0.25 0.07813,-0.34375 0.09375,-0.109375 0.25,-0.109375 0.140625,0 0.21875,0.09375 0.09375,0.09375 0.109375,0.3125 0.03125,0.71875 0.765625,1.3125 0.734375,0.578125 1.96875,0.578125 1.234377,0 1.937507,-0.609375 0.71875,-0.625 0.71875,-1.46875 0,-0.515625 -0.28125,-0.90625 -0.26563,-0.40625 -0.79688,-0.640625 -0.375,-0.171875 -1.562502,-0.375 -1.640625,-0.265625 -2.359375,-0.828125 -0.71875,-0.5625 -0.71875,-1.609375 0,-1.03125 0.828125,-1.765625 0.828125,-0.75 2.171875,-0.75 1.375007,0 2.375007,0.875 z m 9.13281,8.484375 v -0.953125 q -1.42187,1.21875 -3.04687,1.21875 -1.1875,0 -1.85938,-0.59375 -0.65625,-0.609375 -0.65625,-1.484375 0,-0.953125 0.875,-1.65625 0.875,-0.71875 2.5625,-0.71875 0.45313,0 0.98438,0.0625 0.53125,0.0625 1.14062,0.1875 v -1.0625 q 0,-0.546875 -0.5,-0.9375 -0.5,-0.40625 -1.5,-0.40625 -0.76562,0 -2.14062,0.453125 -0.25,0.07813 -0.32813,0.07813 -0.125,0 -0.21875,-0.09375 -0.0781,-0.09375 -0.0781,-0.234375 0,-0.140625 0.0781,-0.21875 0.10938,-0.109375 0.875,-0.3125 1.21875,-0.328125 1.84375,-0.328125 1.25,0 1.9375,0.609375 0.70313,0.609375 0.70313,1.390625 v 4.34375 h 0.875 q 0.23437,0 0.32812,0.09375 0.10938,0.07813 0.10938,0.234375 0,0.140625 -0.10938,0.234375 -0.0937,0.09375 -0.32812,0.09375 z m 0,-3.265625 q -0.45312,-0.140625 -0.96875,-0.203125 -0.51562,-0.0625 -1.09375,-0.0625 -1.42187,0 -2.23437,0.625 -0.60938,0.453125 -0.60938,1.09375 0,0.59375 0.46875,1 0.46875,0.40625 1.35938,0.40625 0.84375,0 1.57812,-0.328125 0.73438,-0.34375 1.5,-1.09375 z m 4.72656,-3.5 v 0.65625 q 0.84375,-0.890625 1.6875,-0.890625 0.5,0 0.875,0.265625 0.39063,0.265625 0.65625,0.8125 0.4375,-0.546875 0.875,-0.8125 0.45313,-0.265625 0.90625,-0.265625 0.71875,0 1.14063,0.453125 0.54687,0.59375 0.54687,1.296875 v 4.59375 h 0.5625 q 0.23438,0 0.32813,0.09375 0.10937,0.07813 0.10937,0.234375 0,0.140625 -0.10937,0.234375 -0.0937,0.09375 -0.32813,0.09375 h -1.21875 v -5.1875 q 0,-0.5 -0.3125,-0.828125 -0.29687,-0.328125 -0.6875,-0.328125 -0.35937,0 -0.76562,0.28125 -0.39063,0.265625 -0.90625,1.046875 v 4.359375 h 0.54687 q 0.23438,0 0.32813,0.09375 0.10937,0.07813 0.10937,0.234375 0,0.140625 -0.10937,0.234375 -0.0937,0.09375 -0.32813,0.09375 h -1.20312 v -5.140625 q 0,-0.515625 -0.3125,-0.859375 -0.3125,-0.34375 -0.6875,-0.34375 -0.35938,0 -0.70313,0.234375 -0.46875,0.3125 -1,1.09375 v 4.359375 h 0.5625 q 0.23438,0 0.32813,0.09375 0.10937,0.07813 0.10937,0.234375 0,0.140625 -0.10937,0.234375 -0.0937,0.09375 -0.32813,0.09375 h -1.76562 q -0.23438,0 -0.34375,-0.09375 -0.0937,-0.09375 -0.0937,-0.234375 0,-0.15625 0.0937,-0.234375 0.10937,-0.09375 0.34375,-0.09375 h 0.54687 v -5.453125 h -0.54687 q -0.23438,0 -0.34375,-0.09375 -0.0937,-0.09375 -0.0937,-0.234375 0,-0.140625 0.0937,-0.234375 0.10937,-0.09375 0.34375,-0.09375 z m 10.11719,0 v 1.1875 q 0.59375,-0.703125 1.26563,-1.0625 0.67187,-0.359375 1.57812,-0.359375 0.96875,0 1.78125,0.453125 0.82813,0.453125 1.28125,1.265625 0.45313,0.796875 0.45313,1.6875 0,1.421875 -1.01563,2.421875 -1.01562,1 -2.48437,1 -1.76563,0 -2.85938,-1.421875 v 3.953125 h 1.59375 q 0.23438,0 0.32813,0.09375 0.10937,0.09375 0.10937,0.234375 0,0.140625 -0.10937,0.234375 -0.0937,0.09375 -0.32813,0.09375 h -3.125 q -0.23437,0 -0.34375,-0.09375 -0.0937,-0.07813 -0.0937,-0.234375 0,-0.140625 0.0937,-0.234375 0.10938,-0.09375 0.34375,-0.09375 h 0.875 v -8.46875 h -0.875 q -0.23437,0 -0.34375,-0.09375 -0.0937,-0.09375 -0.0937,-0.234375 0,-0.140625 0.0937,-0.234375 0.10938,-0.09375 0.34375,-0.09375 z m 5.6875,3.171875 q 0,-1.125 -0.82812,-1.9375 -0.8125,-0.8125 -2,-0.8125 -1.20313,0 -2.03125,0.8125 -0.82813,0.8125 -0.82813,1.9375 0,1.140625 0.82813,1.953125 0.82812,0.8125 2.03125,0.8125 1.17187,0 2,-0.8125 0.82812,-0.8125 0.82812,-1.953125 z m 6.72656,-6.21875 v 9.15625 h 2.57813 q 0.23437,0 0.32812,0.09375 0.10938,0.07813 0.10938,0.234375 0,0.140625 -0.10938,0.234375 -0.0937,0.09375 -0.32812,0.09375 h -5.8125 q -0.23438,0 -0.34375,-0.09375 -0.0937,-0.09375 -0.0937,-0.234375 0,-0.15625 0.0937,-0.234375 0.10937,-0.09375 0.34375,-0.09375 h 2.57812 v -8.484375 h -1.89062 q -0.23438,0 -0.34375,-0.09375 -0.10938,-0.09375 -0.10938,-0.25 0,-0.140625 0.0937,-0.234375 0.10938,-0.09375 0.35938,-0.09375 z m 12.82032,6.578125 h -6.6875 q 0.17187,1.28125 1.0625,2.0625 0.89062,0.765625 2.21875,0.765625 0.73437,0 1.53125,-0.234375 0.8125,-0.25 1.3125,-0.640625 0.15625,-0.125 0.26562,-0.125 0.125,0 0.21875,0.109375 0.0937,0.09375 0.0937,0.21875 0,0.140625 -0.125,0.265625 -0.375,0.390625 -1.34375,0.734375 -0.95312,0.34375 -1.95312,0.34375 -1.6875,0 -2.82813,-1.109375 -1.125,-1.109375 -1.125,-2.6875 0,-1.421875 1.0625,-2.4375 1.0625,-1.03125 2.625,-1.03125 1.60938,0 2.64063,1.046875 1.04687,1.046875 1.03125,2.71875 z m -0.67188,-0.65625 q -0.1875,-1.09375 -1.03125,-1.765625 -0.82812,-0.6875 -1.96875,-0.6875 -1.15625,0 -1.98437,0.671875 -0.82813,0.671875 -1.03125,1.78125 z m 5.28906,0.140625 v 3.09375 h 2.25 q 0.23438,0 0.32813,0.09375 0.10937,0.07813 0.10937,0.234375 0,0.140625 -0.10937,0.234375 -0.0937,0.09375 -0.32813,0.09375 h -3.78125 q -0.23437,0 -0.34375,-0.09375 -0.0937,-0.09375 -0.0937,-0.234375 0,-0.15625 0.0937,-0.234375 0.10938,-0.09375 0.34375,-0.09375 h 0.875 v -7.828125 h -0.875 q -0.23437,0 -0.34375,-0.09375 -0.0937,-0.09375 -0.0937,-0.234375 0,-0.15625 0.0937,-0.234375 0.10938,-0.09375 0.34375,-0.09375 h 3.8125 q 1.34375,0 2.20313,0.796875 0.85937,0.796875 0.85937,1.859375 0,0.640625 -0.28125,1.15625 -0.28125,0.5 -0.67187,0.78125 -0.57813,0.4375 -1.20313,0.640625 -0.45312,0.15625 -1.125,0.15625 z m 0,-0.65625 h 2.09375 q 0.73438,0 1.35938,-0.328125 0.64062,-0.328125 0.9375,-0.796875 0.29687,-0.46875 0.29687,-0.953125 0,-0.765625 -0.67187,-1.375 -0.65625,-0.625 -1.67188,-0.625 h -2.34375 z m 10.24219,-2.359375 v 1.65625 q 1.28125,-1.15625 1.92188,-1.484375 0.64062,-0.34375 1.17187,-0.34375 0.59375,0 1.09375,0.40625 0.5,0.390625 0.5,0.59375 0,0.140625 -0.0937,0.25 -0.0937,0.09375 -0.25,0.09375 -0.0781,0 -0.14062,-0.03125 -0.0469,-0.03125 -0.1875,-0.171875 -0.28125,-0.28125 -0.48438,-0.375 -0.20312,-0.109375 -0.39062,-0.109375 -0.4375,0 -1.04688,0.34375 -0.59375,0.34375 -2.09375,1.6875 v 3.59375 h 2.90625 q 0.25,0 0.34375,0.09375 0.10938,0.07813 0.10938,0.234375 0,0.140625 -0.10938,0.234375 -0.0937,0.09375 -0.34375,0.09375 h -5.14062 q -0.23438,0 -0.34375,-0.09375 -0.0937,-0.09375 -0.0937,-0.234375 0,-0.125 0.0937,-0.21875 0.0937,-0.09375 0.34375,-0.09375 h 1.57812 v -5.46875 h -1.20312 q -0.23438,0 -0.34375,-0.09375 -0.0937,-0.09375 -0.0937,-0.234375 0,-0.140625 0.0937,-0.234375 0.0937,-0.09375 0.34375,-0.09375 z m 14.05469,3.390625 q 0,1.5 -1.07813,2.578125 -1.0625,1.0625 -2.57812,1.0625 -1.53125,0 -2.60938,-1.0625 -1.0625,-1.078125 -1.0625,-2.578125 0,-1.5 1.0625,-2.5625 1.07813,-1.0625 2.60938,-1.0625 1.51562,0 2.57812,1.0625 1.07813,1.0625 1.07813,2.5625 z m -0.65625,0 q 0,-1.234375 -0.89063,-2.09375 -0.875,-0.875 -2.125,-0.875 -1.25,0 -2.125,0.875 -0.875,0.875 -0.875,2.09375 0,1.21875 0.875,2.09375 0.875,0.875 2.125,0.875 1.25,0 2.125,-0.859375 0.89063,-0.875 0.89063,-2.109375 z m 5.24219,-3.390625 h 3.5625 q 0.23437,0 0.32812,0.09375 0.10938,0.09375 0.10938,0.234375 0,0.140625 -0.10938,0.234375 -0.0937,0.09375 -0.32812,0.09375 h -3.5625 v 4.375 q 0,0.5625 0.45312,0.953125 0.46875,0.375 1.34375,0.375 0.67188,0 1.4375,-0.1875 0.78125,-0.203125 1.20313,-0.453125 0.15625,-0.109375 0.26562,-0.109375 0.125,0 0.21875,0.109375 0.0937,0.09375 0.0937,0.21875 0,0.125 -0.10937,0.21875 -0.25,0.265625 -1.21875,0.578125 -0.95313,0.296875 -1.84375,0.296875 -1.14063,0 -1.82813,-0.546875 -0.67187,-0.546875 -0.67187,-1.453125 v -4.375 h -1.21875 q -0.23438,0 -0.34375,-0.09375 -0.0937,-0.09375 -0.0937,-0.234375 0,-0.140625 0.0937,-0.234375 0.10937,-0.09375 0.34375,-0.09375 h 1.21875 v -1.9375 q 0,-0.234375 0.0937,-0.328125 0.0937,-0.109375 0.23437,-0.109375 0.14063,0 0.23438,0.109375 0.0937,0.09375 0.0937,0.328125 z m 14.61718,3.390625 q 0,1.5 -1.07812,2.578125 -1.0625,1.0625 -2.57813,1.0625 -1.53125,0 -2.60937,-1.0625 -1.0625,-1.078125 -1.0625,-2.578125 0,-1.5 1.0625,-2.5625 1.07812,-1.0625 2.60937,-1.0625 1.51563,0 2.57813,1.0625 1.07812,1.0625 1.07812,2.5625 z m -0.65625,0 q 0,-1.234375 -0.89062,-2.09375 -0.875,-0.875 -2.125,-0.875 -1.25,0 -2.125,0.875 -0.875,0.875 -0.875,2.09375 0,1.21875 0.875,2.09375 0.875,0.875 2.125,0.875 1.25,0 2.125,-0.859375 0.89062,-0.875 0.89062,-2.109375 z m 9.33594,-2.734375 v -0.21875 q 0,-0.234375 0.0937,-0.328125 0.0937,-0.109375 0.23438,-0.109375 0.14062,0 0.23437,0.109375 0.0937,0.09375 0.0937,0.328125 v 1.484375 q 0,0.25 -0.0937,0.359375 -0.0937,0.09375 -0.23437,0.09375 -0.14063,0 -0.23438,-0.09375 -0.0781,-0.09375 -0.0937,-0.296875 -0.0469,-0.5625 -0.73437,-1.0625 -0.6875,-0.5 -1.84375,-0.5 -1.45313,0 -2.21875,0.921875 -0.75,0.90625 -0.75,2.09375 0,1.265625 0.82812,2.09375 0.84375,0.828125 2.17188,0.828125 0.76562,0 1.54687,-0.28125 0.79688,-0.28125 1.4375,-0.90625 0.17188,-0.15625 0.29688,-0.15625 0.125,0 0.21875,0.09375 0.0937,0.09375 0.0937,0.21875 0,0.34375 -0.79688,0.859375 -1.26562,0.84375 -2.82812,0.84375 -1.59375,0 -2.60938,-1.015625 -1.01562,-1.015625 -1.01562,-2.578125 0,-1.578125 1.03125,-2.625 1.04687,-1.046875 2.64062,-1.046875 1.5,0 2.53125,0.890625 z m 10.52344,2.734375 q 0,1.5 -1.07813,2.578125 -1.0625,1.0625 -2.57812,1.0625 -1.53125,0 -2.60938,-1.0625 -1.0625,-1.078125 -1.0625,-2.578125 0,-1.5 1.0625,-2.5625 1.07813,-1.0625 2.60938,-1.0625 1.51562,0 2.57812,1.0625 1.07813,1.0625 1.07813,2.5625 z m -0.65625,0 q 0,-1.234375 -0.89063,-2.09375 -0.875,-0.875 -2.125,-0.875 -1.25,0 -2.125,0.875 -0.875,0.875 -0.875,2.09375 0,1.21875 0.875,2.09375 0.875,0.875 2.125,0.875 1.25,0 2.125,-0.859375 0.89063,-0.875 0.89063,-2.109375 z m 6.92969,-6.4375 v 9.15625 h 2.57812 q 0.23438,0 0.32813,0.09375 0.10937,0.07813 0.10937,0.234375 0,0.140625 -0.10937,0.234375 -0.0937,0.09375 -0.32813,0.09375 h -5.8125 q -0.23437,0 -0.34375,-0.09375 -0.0937,-0.09375 -0.0937,-0.234375 0,-0.15625 0.0937,-0.234375 0.10938,-0.09375 0.34375,-0.09375 h 2.57813 v -8.484375 h -1.89063 q -0.23437,0 -0.34375,-0.09375 -0.10937,-0.09375 -0.10937,-0.25 0,-0.140625 0.0937,-0.234375 0.10937,-0.09375 0.35937,-0.09375 z" />
  <path
     style="fill:#ff0000;fill-rule:nonzero"
     inkscape:connector-curvature="0"
     id="path27"
     d="m 234.2091,45.912872 h 0.29687 q 0.4375,0 0.73438,0.3125 0.3125,0.3125 0.3125,0.734375 0,0.46875 -0.3125,0.78125 -0.3125,0.296875 -0.73438,0.296875 h -0.29687 q -0.4375,0 -0.75,-0.3125 -0.29688,-0.3125 -0.29688,-0.75 0,-0.453125 0.3125,-0.75 0.3125,-0.3125 0.73438,-0.3125 z m -1.14063,4.40625 h 2.0625 l -2.20312,3.625 q -0.17188,0.265625 -0.26563,0.328125 -0.0937,0.07813 -0.23437,0.07813 -0.1875,0 -0.3125,-0.125 -0.125,-0.109375 -0.125,-0.265625 0,-0.09375 0.0469,-0.25 z" />
  <path
     style="fill:#000000;fill-rule:nonzero"
     inkscape:connector-curvature="0"
     id="path29"
     d="m 20.130981,284.51851 v -2 h 2 v 2 z m 5.556641,0 v -2 h 2 v 2 z m 5.55664,0 v -2 h 2.000002 v 2 z" />
  <path
     style="fill:#000000;fill-rule:nonzero"
     inkscape:connector-curvature="0"
     id="path31"
     d="m 20.130981,332.51851 v -2 h 2 v 2 z m 5.556641,0 v -2 h 2 v 2 z m 5.55664,0 v -2 h 2.000002 v 2 z" />
  <path
     style="fill:#d9f5d3;fill-rule:evenodd"
     inkscape:connector-curvature="0"
     id="path33"
     d="m 30.56299,89.009952 v 0 c 0,-8.529419 6.914459,-15.443878 15.443878,-15.443878 H 212.78841 c 4.09596,0 8.02418,1.627121 10.92047,4.523407 2.89629,2.896294 4.52341,6.824501 4.52341,10.920471 v 61.773658 c 0,8.52942 -6.91446,15.44388 -15.44388,15.44388 H 46.006868 c -8.529419,0 -15.443878,-6.91446 -15.443878,-15.44388 z" />
  <path
     style="fill-rule:evenodd;stroke:#595959;stroke-width:1;stroke-linecap:butt;stroke-linejoin:round"
     inkscape:connector-curvature="0"
     id="path35"
     d="m 30.56299,89.009952 v 0 c 0,-8.529419 6.914459,-15.443878 15.443878,-15.443878 H 212.78841 c 4.09596,0 8.02418,1.627121 10.92047,4.523407 2.89629,2.896294 4.52341,6.824501 4.52341,10.920471 v 61.773658 c 0,8.52942 -6.91446,15.44388 -15.44388,15.44388 H 46.006868 c -8.529419,0 -15.443878,-6.91446 -15.443878,-15.44388 z" />
  <path
     style="fill:#0000cd;fill-rule:nonzero"
     inkscape:connector-curvature="0"
     id="path37"
     d="m 46.211348,94.669438 v 0.421875 q 0.359375,-0.359375 0.640625,-0.484375 0.296875,-0.140625 0.6875,-0.140625 0.3125,0 0.625,0.15625 0.328125,0.15625 0.625,0.484375 0.375,-0.328125 0.765625,-0.46875 0.390625,-0.15625 0.796875,-0.15625 0.8125,0 1.328125,0.4375 0.671875,0.5625 0.671875,1.5 v 3.28125 q 0.453125,0 0.671875,0.21875 0.234375,0.203122 0.234375,0.515622 0,0.32813 -0.234375,0.53125 -0.21875,0.20313 -0.75,0.20313 h -1.390625 v -4.625002 q 0,-0.34375 -0.125,-0.46875 -0.109375,-0.125 -0.359375,-0.125 -0.25,0 -0.453125,0.125 -0.265625,0.171875 -0.65625,0.671875 v 2.953125 q 0.46875,0 0.6875,0.21875 0.21875,0.203122 0.21875,0.515622 0,0.32813 -0.21875,0.53125 -0.21875,0.20313 -0.75,0.20313 h -1.390625 v -4.625002 q 0,-0.328125 -0.125,-0.453125 -0.125,-0.140625 -0.390625,-0.140625 -0.25,0 -0.5,0.15625 -0.25,0.15625 -0.609375,0.640625 v 2.953125 q 0.46875,0 0.6875,0.21875 0.234375,0.203122 0.234375,0.515622 0,0.32813 -0.234375,0.53125 -0.21875,0.20313 -0.75,0.20313 h -1.328125 q -0.53125,0 -0.75,-0.20313 -0.234375,-0.20312 -0.234375,-0.53125 0,-0.32812 0.234375,-0.531247 0.21875,-0.203125 0.6875,-0.203125 v -3.5625 q -0.46875,0 -0.6875,-0.203125 -0.234375,-0.21875 -0.234375,-0.53125 0,-0.328125 0.234375,-0.53125 0.21875,-0.203125 0.75,-0.203125 z m 14.748306,4 h -6.015625 q 0.234375,0.5625 0.8125,0.921875 0.578125,0.34375 1.578125,0.34375 0.8125,0 2.171875,-0.34375 0.546875,-0.140625 0.765625,-0.140625 0.296875,0 0.5,0.203125 0.203125,0.203125 0.203125,0.515627 0,0.29687 -0.21875,0.48437 -0.296875,0.26563 -1.40625,0.51563 -1.09375,0.23437 -2.125,0.23437 -1.765625,0 -2.828125,-0.98437 -1.046875,-1.000002 -1.046875,-2.453127 0,-1.546875 1.140625,-2.515625 1.140625,-0.96875 2.640625,-0.96875 0.890625,0 1.640625,0.3125 0.75,0.3125 1.109375,0.671875 0.515625,0.53125 0.84375,1.3125 0.234375,0.546875 0.234375,1.265625 z m -1.625,-1.46875 q -0.328125,-0.625 -0.875,-0.9375 -0.546875,-0.3125 -1.296875,-0.3125 -0.75,0 -1.296875,0.3125 -0.53125,0.3125 -0.875,0.9375 z m 8.326431,-0.8125 q -0.359375,-0.21875 -0.75,-0.328125 -0.390625,-0.109375 -0.828125,-0.109375 -0.84375,0 -1.34375,0.28125 -0.234375,0.109375 -0.234375,0.25 0,0.171875 0.3125,0.328125 0.21875,0.109375 1.015625,0.21875 1.46875,0.203125 2.03125,0.40625 0.75,0.265625 1.15625,0.796875 0.40625,0.515625 0.40625,1.09375 0,0.781252 -0.6875,1.312502 -1,0.76562 -2.578125,0.76562 -0.640625,0 -1.1875,-0.10937 -0.53125,-0.10938 -0.984375,-0.32813 -0.109375,0.0937 -0.234375,0.15625 -0.125,0.0469 -0.25,0.0469 -0.34375,0 -0.546875,-0.21875 -0.203125,-0.23438 -0.203125,-0.76563 v -0.499997 q 0,-0.53125 0.203125,-0.75 0.203125,-0.234375 0.53125,-0.234375 0.265625,0 0.4375,0.15625 0.1875,0.140625 0.296875,0.5 0.328125,0.28125 0.796875,0.4375 0.484375,0.140625 1.09375,0.140625 1.015625,0 1.5625,-0.3125 0.265625,-0.15625 0.265625,-0.328125 0,-0.28125 -0.375,-0.46875 -0.375,-0.1875 -1.5625,-0.3125 -1.765625,-0.1875 -2.375,-0.71875 -0.59375,-0.53125 -0.59375,-1.296875 0,-0.78125 0.671875,-1.296875 0.90625,-0.71875 2.359375,-0.71875 0.515625,0 0.984375,0.09375 0.46875,0.09375 0.890625,0.296875 0.140625,-0.09375 0.25,-0.140625 0.125,-0.0625 0.21875,-0.0625 0.3125,0 0.5,0.234375 0.203125,0.21875 0.203125,0.75 v 0.359375 q 0,0.46875 -0.109375,0.640625 -0.234375,0.34375 -0.625,0.34375 -0.265625,0 -0.46875,-0.171875 -0.1875,-0.171875 -0.25,-0.4375 z m 8.795181,0 q -0.359375,-0.21875 -0.75,-0.328125 -0.390625,-0.109375 -0.828125,-0.109375 -0.84375,0 -1.34375,0.28125 -0.234375,0.109375 -0.234375,0.25 0,0.171875 0.3125,0.328125 0.21875,0.109375 1.015625,0.21875 1.46875,0.203125 2.03125,0.40625 0.75,0.265625 1.15625,0.796875 0.40625,0.515625 0.40625,1.09375 0,0.781252 -0.6875,1.312502 -1,0.76562 -2.578125,0.76562 -0.640625,0 -1.1875,-0.10937 -0.53125,-0.10938 -0.984375,-0.32813 -0.109375,0.0937 -0.234375,0.15625 -0.125,0.0469 -0.25,0.0469 -0.34375,0 -0.546875,-0.21875 -0.203125,-0.23438 -0.203125,-0.76563 v -0.499997 q 0,-0.53125 0.203125,-0.75 0.203125,-0.234375 0.53125,-0.234375 0.265625,0 0.4375,0.15625 0.1875,0.140625 0.296875,0.5 0.328125,0.28125 0.796875,0.4375 0.484375,0.140625 1.09375,0.140625 1.015625,0 1.5625,-0.3125 0.265625,-0.15625 0.265625,-0.328125 0,-0.28125 -0.375,-0.46875 -0.375,-0.1875 -1.5625,-0.3125 -1.765625,-0.1875 -2.375,-0.71875 -0.59375,-0.53125 -0.59375,-1.296875 0,-0.78125 0.671875,-1.296875 0.90625,-0.71875 2.359375,-0.71875 0.515625,0 0.984375,0.09375 0.46875,0.09375 0.890625,0.296875 0.140625,-0.09375 0.25,-0.140625 0.125,-0.0625 0.21875,-0.0625 0.3125,0 0.5,0.234375 0.203125,0.21875 0.203125,0.75 v 0.359375 q 0,0.46875 -0.109375,0.640625 -0.234375,0.34375 -0.625,0.34375 -0.265625,0 -0.46875,-0.171875 -0.1875,-0.171875 -0.25,-0.4375 z m 8.529556,4.781252 v -0.34375 q -0.546875,0.29687 -1.21875,0.4375 -0.671875,0.15625 -1.203125,0.15625 -1.1875,0 -1.921875,-0.625 -0.734375,-0.64063 -0.734375,-1.390627 0,-0.921875 0.9375,-1.703125 0.9375,-0.796875 2.59375,-0.796875 0.671875,0 1.546875,0.140625 v -0.359375 q 0,-0.328125 -0.28125,-0.53125 -0.28125,-0.203125 -1.078125,-0.203125 -0.65625,0 -1.6875,0.25 -0.390625,0.09375 -0.609375,0.09375 -0.28125,0 -0.5,-0.203125 -0.203125,-0.21875 -0.203125,-0.546875 0,-0.1875 0.07813,-0.3125 0.07813,-0.140625 0.203125,-0.21875 0.125,-0.09375 0.53125,-0.203125 0.546875,-0.15625 1.109375,-0.234375 0.5625,-0.09375 1.03125,-0.09375 1.359375,0 2.109375,0.59375 0.765625,0.578125 0.765625,1.609375 v 3.015625 h 0.25 q 0.53125,0 0.75,0.203125 0.234375,0.203127 0.234375,0.531247 0,0.32813 -0.234375,0.53125 -0.21875,0.20313 -0.75,0.20313 z m 0,-2.625002 q -0.875,-0.171875 -1.625,-0.171875 -0.890625,0 -1.53125,0.4375 -0.40625,0.28125 -0.40625,0.5625 0,0.203125 0.1875,0.34375 0.359375,0.234375 0.984375,0.234375 0.53125,0 1.203125,-0.203125 0.671875,-0.21875 1.1875,-0.578125 z m 9.092056,-3.4375 v -0.4375 h 1.71875 q 0.53125,0 0.75,0.203125 0.21875,0.203125 0.21875,0.53125 0,0.328125 -0.21875,0.53125 -0.21875,0.203125 -0.75,0.203125 h -0.25 v 5.343752 q 0,0.76562 -0.328125,1.34375 -0.328125,0.57812 -1,0.98437 -0.671875,0.42188 -1.515625,0.42188 h -1.65625 q -0.53125,0 -0.765625,-0.20313 -0.21875,-0.20312 -0.21875,-0.53125 0,-0.32812 0.21875,-0.53125 0.234375,-0.20312 0.765625,-0.20312 h 1.609375 q 0.671875,0 1.046875,-0.375 0.375,-0.35938 0.375,-0.90625 v -0.71875 q -0.484375,0.3125 -1,0.46875 -0.5,0.15625 -1.03125,0.15625 -1.5,0 -2.515625,-1 -1,-1.000002 -1,-2.453127 0,-1.484375 1,-2.484375 1.015625,-1 2.515625,-1 0.5625,0 1.0625,0.171875 0.5,0.15625 0.96875,0.484375 z m -0.01563,2.8125 q 0,-0.8125 -0.59375,-1.40625 -0.59375,-0.59375 -1.4375,-0.59375 -0.828125,0 -1.4375,0.59375 -0.59375,0.59375 -0.59375,1.40625 0,0.8125 0.59375,1.40625 0.609375,0.59375 1.4375,0.59375 0.84375,0 1.4375,-0.59375 0.59375,-0.59375 0.59375,-1.40625 z m 10.873312,0.75 h -6.015631 q 0.234375,0.5625 0.8125,0.921875 0.578121,0.34375 1.578131,0.34375 0.8125,0 2.17188,-0.34375 0.54687,-0.140625 0.76562,-0.140625 0.29688,0 0.5,0.203125 0.20313,0.203125 0.20313,0.515627 0,0.29687 -0.21875,0.48437 -0.29688,0.26563 -1.40625,0.51563 -1.09375,0.23437 -2.125,0.23437 -1.765636,0 -2.828136,-0.98437 -1.046875,-1.000002 -1.046875,-2.453127 0,-1.546875 1.140625,-2.515625 1.140625,-0.96875 2.640636,-0.96875 0.89062,0 1.64062,0.3125 0.75,0.3125 1.10938,0.671875 0.51562,0.53125 0.84375,1.3125 0.23437,0.546875 0.23437,1.265625 z m -1.625,-1.46875 q -0.32812,-0.625 -0.875,-0.9375 -0.54687,-0.3125 -1.29687,-0.3125 -0.75001,0 -1.296886,0.3125 -0.53125,0.3125 -0.875,0.9375 z" />
  <path
     style="fill:#000000;fill-rule:nonzero"
     inkscape:connector-curvature="0"
     id="path39"
     d="m 117.66971,97.028812 v 3.531248 h 2.10937 q 0.21875,0 0.3125,0.0781 0.0937,0.0781 0.0937,0.21875 0,0.14062 -0.0937,0.23437 -0.0937,0.0781 -0.3125,0.0781 h -3.54687 q -0.21875,0 -0.3125,-0.0781 -0.0937,-0.0937 -0.0937,-0.23437 0,-0.14063 0.0937,-0.21875 0.0937,-0.0781 0.3125,-0.0781 h 0.82812 v -7.343748 h -0.82812 q -0.21875,0 -0.3125,-0.07813 -0.0937,-0.09375 -0.0937,-0.234375 0,-0.140625 0.10937,-0.234375 0.0781,-0.0625 0.29688,-0.0625 h 6.76562 v 2.10938 q 0,0.21875 -0.0937,0.3125 -0.0781,0.09375 -0.20312,0.09375 -0.14063,0 -0.23438,-0.09375 -0.0781,-0.09375 -0.0781,-0.3125 v -1.5 h -4.71875 v 3.203125 h 2.20312 v -0.703125 q 0,-0.21875 0.0781,-0.3125 0.0937,-0.09375 0.23437,-0.09375 0.14063,0 0.21875,0.09375 0.0937,0.09375 0.0937,0.3125 v 2.015625 q 0,0.21875 -0.0937,0.3125 -0.0781,0.09375 -0.21875,0.09375 -0.14062,0 -0.23437,-0.09375 -0.0781,-0.09375 -0.0781,-0.3125 v -0.703125 z m 13.92334,0.984375 q 0,1.40625 -1.01563,2.406253 -1,0.98437 -2.42187,0.98437 -1.4375,0 -2.4375,-1 -1,-0.999998 -1,-2.390623 0,-1.40625 1,-2.40625 1,-1 2.4375,-1 1.42187,0 2.42187,1 1.01563,0.984375 1.01563,2.40625 z m -0.625,0 q 0,-1.15625 -0.82813,-1.96875 -0.8125,-0.8125 -1.98437,-0.8125 -1.17187,0 -2,0.8125 -0.82812,0.8125 -0.82812,1.96875 0,1.140625 0.82812,1.96875 0.82813,0.812503 2,0.812503 1.17187,0 1.98437,-0.812503 0.82813,-0.8125 0.82813,-1.96875 z m 9.62646,0 q 0,1.40625 -1.01562,2.406253 -1,0.98437 -2.42188,0.98437 -1.4375,0 -2.4375,-1 -1,-0.999998 -1,-2.390623 0,-1.40625 1,-2.40625 1,-1 2.4375,-1 1.42188,0 2.42188,1 1.01562,0.984375 1.01562,2.40625 z m -0.625,0 q 0,-1.15625 -0.82812,-1.96875 -0.8125,-0.8125 -1.98438,-0.8125 -1.17187,0 -2,0.8125 -0.82812,0.8125 -0.82812,1.96875 0,1.140625 0.82812,1.96875 0.82813,0.812503 2,0.812503 1.17188,0 1.98438,-0.812503 0.82812,-0.8125 0.82812,-1.96875 z m 4.18897,-0.671875 v 3.218748 h 1.14062 q 0.21875,0 0.3125,0.0781 0.0937,0.0781 0.0937,0.21875 0,0.14062 -0.0937,0.23437 -0.0937,0.0781 -0.3125,0.0781 h -2.57812 q -0.23438,0 -0.32813,-0.0781 -0.0937,-0.0937 -0.0937,-0.23437 0,-0.14063 0.0937,-0.21875 0.0937,-0.0781 0.32813,-0.0781 h 0.8125 v -7.343748 h -0.8125 q -0.23438,0 -0.32813,-0.07813 -0.0937,-0.09375 -0.0937,-0.234375 0,-0.140625 0.0937,-0.21875 0.0937,-0.07813 0.32813,-0.07813 h 3.71875 q 1.14062,0 1.92187,0.734375 0.79688,0.71875 0.79688,1.625 0,0.671875 -0.48438,1.25 -0.48437,0.578125 -1.625,0.96875 0.65625,0.453125 1.125,1.03125 0.46875,0.5625 1.5,2.343748 h 0.46875 q 0.21875,0 0.3125,0.0781 0.0937,0.0781 0.0937,0.21875 0,0.14062 -0.0937,0.23437 -0.0937,0.0781 -0.3125,0.0781 h -0.82812 q -1.14063,-2.046878 -1.76563,-2.734378 -0.625,-0.703125 -1.4375,-1.09375 z m 0,-0.609375 h 1.67187 q 0.8125,0 1.46875,-0.296875 0.65625,-0.296875 0.95313,-0.6875 0.29687,-0.390625 0.29687,-0.796875 0,-0.625 -0.625,-1.171875 -0.625,-0.5625 -1.5,-0.5625 h -2.26562 z m 14.32959,1.40625 h -6.26563 q 0.15625,1.203125 1,1.937503 0.84375,0.71875 2.07813,0.71875 0.6875,0 1.4375,-0.21875 0.75,-0.23438 1.23437,-0.609378 0.14063,-0.109375 0.23438,-0.109375 0.125,0 0.20312,0.09375 0.0937,0.09375 0.0937,0.218753 0,0.125 -0.10937,0.23437 -0.35938,0.375 -1.26563,0.6875 -0.89062,0.3125 -1.82812,0.3125 -1.59375,0 -2.65625,-1.03125 -1.04688,-1.031248 -1.04688,-2.499998 0,-1.34375 0.98438,-2.296875 1,-0.96875 2.46875,-0.96875 1.5,0 2.46875,0.984375 0.98437,0.984375 0.96875,2.546875 z m -0.625,-0.609375 q -0.17188,-1.03125 -0.95313,-1.65625 -0.78125,-0.640625 -1.85937,-0.640625 -1.07813,0 -1.85938,0.625 -0.76562,0.625 -0.96875,1.671875 z m 8.68896,-1.578125 v -1.125 h 1.4375 q 0.23438,0 0.32813,0.09375 0.0937,0.07813 0.0937,0.21875 0,0.140625 -0.0937,0.234375 -0.0937,0.07813 -0.32813,0.07813 h -0.82812 v 7.937508 h 0.82812 q 0.23438,0 0.32813,0.0781 0.0937,0.0781 0.0937,0.21875 0,0.14063 -0.0937,0.21875 -0.0937,0.0937 -0.32813,0.0937 h -2.9375 q -0.21875,0 -0.3125,-0.0937 -0.0937,-0.0781 -0.0937,-0.21875 0,-0.14062 0.0937,-0.21875 0.0937,-0.0781 0.3125,-0.0781 h 1.5 v -3.718758 q -1.03125,1.343758 -2.67187,1.343758 -1.39063,0 -2.34375,-0.93751 -0.9375,-0.937498 -0.9375,-2.265623 0,-1.328125 0.9375,-2.265625 0.95312,-0.9375 2.34375,-0.9375 1.64062,0 2.67187,1.34375 z m 0,1.859375 q 0,-1.0625 -0.78125,-1.8125 -0.78125,-0.765625 -1.89062,-0.765625 -1.10938,0 -1.89063,0.765625 -0.78125,0.75 -0.78125,1.8125 0,1.0625 0.78125,1.828125 0.78125,0.750003 1.89063,0.750003 1.10937,0 1.89062,-0.750003 0.78125,-0.765625 0.78125,-1.828125 z" />
  <path
     style="fill:#000000;fill-rule:nonzero"
     inkscape:connector-curvature="0"
     id="path41"
     d="m 48.226972,115.52881 q 0.375,0.26563 0.5,0.51563 0.171875,0.32812 0.171875,0.78125 v 2.64062 q 0,0.40625 0.234375,0.67188 0.25,0.28125 0.609375,0.3125 0.21875,0.0156 0.296875,0.0937 0.09375,0.0781 0.09375,0.21875 0,0.14062 -0.09375,0.21875 -0.09375,0.0781 -0.28125,0.0781 -0.578125,0 -0.96875,-0.35937 -0.515625,-0.5 -0.515625,-1.23438 v -2.64062 q 0,-0.39063 -0.25,-0.65625 -0.234375,-0.28125 -0.609375,-0.3125 -0.203125,-0.0312 -0.28125,-0.10938 -0.07813,-0.0781 -0.07813,-0.21875 0,-0.14062 0.07813,-0.21875 0.07813,-0.0937 0.28125,-0.10937 0.390625,-0.0312 0.625,-0.29688 0.234375,-0.28125 0.234375,-0.6875 v -2.64062 q 0,-0.6875 0.4375,-1.14063 0.4375,-0.45312 1.0625,-0.45312 0.171875,0 0.265625,0.0937 0.09375,0.0781 0.09375,0.20312 0,0.14063 -0.09375,0.21875 -0.0625,0.0781 -0.296875,0.10938 -0.375,0.0312 -0.609375,0.3125 -0.234375,0.26562 -0.234375,0.65625 v 2.64062 q 0,0.46875 -0.15625,0.75 -0.140625,0.28125 -0.515625,0.5625 z" />
  <path
     style="fill:#06960e;fill-rule:nonzero"
     inkscape:connector-curvature="0"
     id="path43"
     d="m 80.200118,127.74756 -7.046875,10.35937 q -0.109375,0.17187 -0.1875,0.21875 -0.07813,0.0469 -0.171875,0.0469 -0.109375,0 -0.1875,-0.0625 -0.0625,-0.0625 -0.0625,-0.17187 0,-0.10938 0.125,-0.28125 l 7.03125,-10.35937 q 0.109375,-0.17187 0.1875,-0.21875 0.09375,-0.0469 0.1875,-0.0469 0.109375,0 0.171875,0.0781 0.07813,0.0625 0.07813,0.15625 0,0.0937 -0.125,0.28125 z m 8.795181,0 -7.046875,10.35937 q -0.109375,0.17187 -0.1875,0.21875 -0.07813,0.0469 -0.171875,0.0469 -0.109375,0 -0.1875,-0.0625 -0.0625,-0.0625 -0.0625,-0.17187 0,-0.10938 0.125,-0.28125 l 7.03125,-10.35937 q 0.109375,-0.17187 0.1875,-0.21875 0.09375,-0.0469 0.1875,-0.0469 0.109375,0 0.171875,0.0781 0.07813,0.0625 0.07813,0.15625 0,0.0937 -0.125,0.28125 z m 13.668491,3.82812 -1.0625,5 h 2.64062 q 0.20313,0 0.26563,0.0625 0.0781,0.0469 0.0781,0.17187 0,0.14063 -0.125,0.25 -0.10937,0.10938 -0.34375,0.10938 h -4.703123 q -0.203125,0 -0.28125,-0.0625 -0.0625,-0.0625 -0.0625,-0.1875 0,-0.14063 0.109375,-0.23438 0.125,-0.10937 0.359375,-0.10937 h 1.453123 l 1.0625,-5 h -1.29687 q -0.20313,0 -0.28125,-0.0625 -0.0625,-0.0625 -0.0625,-0.17188 0,-0.14062 0.10937,-0.25 0.125,-0.125 0.35938,-0.125 h 1.29687 l 0.20313,-0.90625 q 0.15625,-0.76562 0.89062,-1.3125 0.73438,-0.56249 1.76563,-0.56249 0.78125,0 1.70312,0.14063 0.39063,0.0625 0.45313,0.14062 0.0625,0.0625 0.0625,0.15624 0,0.14063 -0.10938,0.25 -0.10937,0.10938 -0.28125,0.10938 -0.0469,0 -0.1875,-0.0156 -1.03125,-0.17187 -1.76562,-0.17187 -0.8125,0 -1.32813,0.39062 -0.5,0.39063 -0.59375,0.875 l -0.20312,0.90625 h 2.8125 q 0.20312,0 0.26562,0.0625 0.0781,0.0781 0.0781,0.1875 0,0.14063 -0.125,0.25 -0.10938,0.10938 -0.34375,0.10938 z m 10.26393,-3.68749 -0.32813,1.54686 h -0.875 l 0.32813,-1.54686 z m -0.625,3.07811 -1.1875,5.60938 h 2.35937 q 0.20313,0 0.26563,0.0625 0.0781,0.0469 0.0781,0.17187 0,0.14063 -0.125,0.25 -0.10937,0.10938 -0.34375,0.10938 h -5.32812 q -0.20313,0 -0.28125,-0.0625 -0.0625,-0.0625 -0.0625,-0.1875 0,-0.14063 0.10937,-0.23438 0.125,-0.10937 0.35938,-0.10937 h 2.375 l 1.04687,-5 h -1.75 q -0.20312,0 -0.28125,-0.0625 -0.0625,-0.0625 -0.0625,-0.17188 0,-0.14062 0.10938,-0.25 0.125,-0.125 0.35937,-0.125 z m 11.04518,3.25 h -6.125 q -0.0156,0.21875 -0.0156,0.32813 0,0.98437 0.65625,1.625 0.67187,0.64062 1.8125,0.64062 0.67187,0 1.4375,-0.21875 0.78125,-0.21875 1.34375,-0.59375 0.17187,-0.10937 0.26562,-0.10937 0.0937,0 0.15625,0.0781 0.0625,0.0625 0.0625,0.17188 0,0.125 -0.10937,0.23437 -0.32813,0.35938 -1.32813,0.70313 -0.98437,0.32812 -2,0.32812 -1.3125,0 -2.10937,-0.78125 -0.79688,-0.78125 -0.79688,-1.98437 0,-0.79688 0.34375,-1.5 0.34375,-0.70313 0.90625,-1.20313 0.5625,-0.51562 1.29688,-0.84375 0.73437,-0.32812 1.59375,-0.32812 1.23437,0 1.98437,0.71875 0.75,0.71875 0.75,1.84375 0,0.375 -0.125,0.89062 z m -0.48437,-0.60937 q 0.0469,-0.98438 -0.57813,-1.625 -0.64062,-0.60938 -1.6875,-0.60938 -1.03125,0 -1.9375,0.60938 -0.89062,0.59375 -1.29687,1.625 z m 7.6233,-5.42187 -1.78125,8.39062 h 2.35938 q 0.20312,0 0.26562,0.0625 0.0781,0.0469 0.0781,0.17187 0,0.14063 -0.125,0.25 -0.10938,0.10938 -0.34375,0.10938 h -5.32813 q -0.20312,0 -0.28125,-0.0625 -0.0625,-0.0625 -0.0625,-0.1875 0,-0.14063 0.10938,-0.23438 0.125,-0.10937 0.35937,-0.10937 h 2.35938 l 1.65625,-7.78125 h -1.73438 q -0.20312,0 -0.28125,-0.0625 -0.0625,-0.0625 -0.0625,-0.17188 0,-0.15624 0.10938,-0.26562 0.125,-0.10937 0.35937,-0.10937 z m 11.42018,0 -1.78125,8.39062 h 0.79688 q 0.20312,0 0.26562,0.0625 0.0781,0.0469 0.0781,0.17187 0,0.14063 -0.125,0.25 -0.10938,0.10938 -0.34375,0.10938 h -1.40625 l 0.25,-1.1875 q -1.34375,1.42187 -2.98438,1.42187 -1.09375,0 -1.8125,-0.71875 -0.70312,-0.73437 -0.70312,-1.90625 0,-0.95312 0.57812,-1.9375 0.57813,-0.98437 1.51563,-1.53125 0.9375,-0.54687 1.875,-0.54687 1.5625,0 2.34375,1.42187 l 0.71875,-3.39062 h -0.8125 q -0.20313,0 -0.28125,-0.0625 -0.0625,-0.0625 -0.0625,-0.17188 0,-0.15624 0.10937,-0.26562 0.125,-0.10937 0.375,-0.10937 z m -5.07812,8.62499 q 0.64062,0 1.20312,-0.26562 0.57813,-0.28125 1.03125,-0.71875 0.46875,-0.45313 0.75,-1.07813 0.29688,-0.64062 0.29688,-1.29687 0,-0.89063 -0.59375,-1.48438 -0.59375,-0.59375 -1.48438,-0.59375 -1.26562,0 -2.28125,1.01563 -1,1 -1,2.28125 0,0.9375 0.59375,1.54687 0.59375,0.59375 1.48438,0.59375 z m 12.2483,-5.4375 q 0.0469,-0.21875 0.14063,-0.3125 0.10937,-0.0937 0.25,-0.0937 0.0937,0 0.15625,0.0781 0.0781,0.0625 0.0781,0.15625 0,0.0625 -0.0312,0.17187 l -0.20312,1.03125 q -0.0625,0.21875 -0.17188,0.3125 -0.0937,0.0937 -0.23437,0.0937 -0.0937,0 -0.17188,-0.0625 -0.0625,-0.0625 -0.0625,-0.15625 l 0.0156,-0.10937 q 0,-0.0625 0,-0.10938 0,-0.39062 -0.34375,-0.64062 -0.5,-0.35938 -1.42188,-0.35938 -1.10937,0 -1.75,0.46875 -0.48437,0.34375 -0.48437,0.73438 0,0.39062 0.42187,0.64062 0.29688,0.17188 1.29688,0.28125 1,0.10938 1.42187,0.25 0.60938,0.1875 0.89063,0.5625 0.29687,0.35938 0.29687,0.8125 0,0.53125 -0.39062,1.0625 -0.375,0.53125 -1.17188,0.875 -0.79687,0.34375 -1.79687,0.34375 -0.70313,0 -1.25,-0.1875 -0.54688,-0.17187 -0.92188,-0.53125 -0.0625,0.29688 -0.14062,0.375 -0.125,0.10938 -0.26563,0.10938 -0.0937,0 -0.17187,-0.0625 -0.0625,-0.0625 -0.0625,-0.15625 0,-0.0625 0.0156,-0.1875 l 0.26563,-1.23438 q 0.0469,-0.21875 0.15625,-0.3125 0.10937,-0.0937 0.23437,-0.0937 0.10938,0 0.17188,0.0781 0.0781,0.0625 0.0781,0.15625 0,0.0625 -0.0312,0.17187 -0.0156,0.10938 -0.0156,0.15625 0,0.40625 0.42187,0.71875 0.5625,0.40625 1.625,0.40625 1.28125,0 1.95313,-0.5 0.67187,-0.51562 0.67187,-1.01562 0,-0.28125 -0.20312,-0.53125 -0.1875,-0.26563 -0.59375,-0.42188 -0.39063,-0.15625 -1.3125,-0.25 -0.90625,-0.0937 -1.32813,-0.23437 -0.42187,-0.15625 -0.65625,-0.45313 -0.23437,-0.3125 -0.23437,-0.6875 0,-0.45312 0.3125,-0.89062 0.3125,-0.4375 1.03125,-0.75 0.71875,-0.3125 1.60937,-0.3125 0.625,0 1.09375,0.15625 0.48438,0.14062 0.8125,0.45312 z m 14.60599,4.07813 h 0.25 q 0.34375,0 0.5625,0.21875 0.23438,0.20312 0.23438,0.54687 0,0.45313 -0.375,0.8125 -0.35938,0.35938 -0.82813,0.35938 h -0.26562 q -0.34375,0 -0.5625,-0.21875 -0.21875,-0.21875 -0.21875,-0.5625 0,-0.45313 0.35937,-0.79688 0.375,-0.35937 0.84375,-0.35937 z m 8.79518,0 h 0.25 q 0.34375,0 0.5625,0.21875 0.23438,0.20312 0.23438,0.54687 0,0.45313 -0.375,0.8125 -0.35938,0.35938 -0.82813,0.35938 h -0.26562 q -0.34375,0 -0.5625,-0.21875 -0.21875,-0.21875 -0.21875,-0.5625 0,-0.45313 0.35937,-0.79688 0.375,-0.35937 0.84375,-0.35937 z m 8.79518,0 h 0.25 q 0.34375,0 0.5625,0.21875 0.23438,0.20312 0.23438,0.54687 0,0.45313 -0.375,0.8125 -0.35938,0.35938 -0.82813,0.35938 h -0.26562 q -0.34375,0 -0.5625,-0.21875 -0.21875,-0.21875 -0.21875,-0.5625 0,-0.45313 0.35937,-0.79688 0.375,-0.35937 0.84375,-0.35937 z" />
  <path
     style="fill:#000000;fill-rule:nonzero"
     inkscape:connector-curvature="0"
     id="path45"
     d="m 48.945722,151.52881 q -0.375,-0.28125 -0.5,-0.53125 -0.15625,-0.32813 -0.15625,-0.78125 v -2.64063 q 0,-0.40625 -0.25,-0.67187 -0.234375,-0.28125 -0.59375,-0.29688 -0.234375,-0.0312 -0.3125,-0.0937 -0.09375,-0.0937 -0.09375,-0.23437 0,-0.125 0.09375,-0.20313 0.09375,-0.0937 0.28125,-0.0937 0.578125,0 0.96875,0.375 0.515625,0.48438 0.515625,1.21875 v 2.64063 q 0,0.40625 0.234375,0.6875 0.25,0.26562 0.625,0.29687 0.203125,0.0156 0.28125,0.10938 0.09375,0.0781 0.09375,0.21875 0,0.14062 -0.09375,0.21875 -0.07813,0.0781 -0.28125,0.10937 -0.375,0.0312 -0.625,0.3125 -0.234375,0.26563 -0.234375,0.65625 v 2.64063 q 0,0.6875 -0.4375,1.14062 -0.4375,0.46875 -1.046875,0.46875 -0.1875,0 -0.28125,-0.0937 -0.09375,-0.0781 -0.09375,-0.21875 0,-0.14062 0.09375,-0.21875 0.07813,-0.0781 0.3125,-0.0937 0.359375,-0.0312 0.59375,-0.3125 0.25,-0.26562 0.25,-0.67187 v -2.64063 q 0,-0.45312 0.140625,-0.73437 0.140625,-0.29688 0.515625,-0.5625 z" />
  <path
     style="fill:#fce5cd;fill-rule:evenodd"
     inkscape:connector-curvature="0"
     id="path47"
     d="m 30.56299,189.89184 v 0 c 0,-8.52942 6.914459,-15.44388 15.443878,-15.44388 H 212.78841 c 4.09596,0 8.02418,1.62712 10.92047,4.52341 2.89629,2.89628 4.52341,6.82451 4.52341,10.92047 v 61.77367 c 0,8.52941 -6.91446,15.44387 -15.44388,15.44387 H 46.006868 c -8.529419,0 -15.443878,-6.91446 -15.443878,-15.44387 z" />
  <path
     style="fill-rule:evenodd;stroke:#595959;stroke-width:1;stroke-linecap:butt;stroke-linejoin:round"
     inkscape:connector-curvature="0"
     id="path49"
     d="m 30.56299,189.89184 v 0 c 0,-8.52942 6.914459,-15.44388 15.443878,-15.44388 H 212.78841 c 4.09596,0 8.02418,1.62712 10.92047,4.52341 2.89629,2.89628 4.52341,6.82451 4.52341,10.92047 v 61.77367 c 0,8.52941 -6.91446,15.44387 -15.44388,15.44387 H 46.006868 c -8.529419,0 -15.443878,-6.91446 -15.443878,-15.44387 z" />
  <path
     style="fill:#0000cd;fill-rule:nonzero"
     inkscape:connector-curvature="0"
     id="path51"
     d="m 46.211348,195.55133 v 0.42187 q 0.359375,-0.35937 0.640625,-0.48437 0.296875,-0.14063 0.6875,-0.14063 0.3125,0 0.625,0.15625 0.328125,0.15625 0.625,0.48438 0.375,-0.32813 0.765625,-0.46875 0.390625,-0.15625 0.796875,-0.15625 0.8125,0 1.328125,0.4375 0.671875,0.5625 0.671875,1.5 v 3.28125 q 0.453125,0 0.671875,0.21875 0.234375,0.20312 0.234375,0.51562 0,0.32813 -0.234375,0.53125 -0.21875,0.20313 -0.75,0.20313 h -1.390625 v -4.625 q 0,-0.34375 -0.125,-0.46875 -0.109375,-0.125 -0.359375,-0.125 -0.25,0 -0.453125,0.125 -0.265625,0.17187 -0.65625,0.67187 v 2.95313 q 0.46875,0 0.6875,0.21875 0.21875,0.20312 0.21875,0.51562 0,0.32813 -0.21875,0.53125 -0.21875,0.20313 -0.75,0.20313 h -1.390625 v -4.625 q 0,-0.32813 -0.125,-0.45313 -0.125,-0.14062 -0.390625,-0.14062 -0.25,0 -0.5,0.15625 -0.25,0.15625 -0.609375,0.64062 v 2.95313 q 0.46875,0 0.6875,0.21875 0.234375,0.20312 0.234375,0.51562 0,0.32813 -0.234375,0.53125 -0.21875,0.20313 -0.75,0.20313 h -1.328125 q -0.53125,0 -0.75,-0.20313 -0.234375,-0.20312 -0.234375,-0.53125 0,-0.32812 0.234375,-0.53125 0.21875,-0.20312 0.6875,-0.20312 v -3.5625 q -0.46875,0 -0.6875,-0.20313 -0.234375,-0.21875 -0.234375,-0.53125 0,-0.32812 0.234375,-0.53125 0.21875,-0.20312 0.75,-0.20312 z m 14.748306,4 h -6.015625 q 0.234375,0.5625 0.8125,0.92187 0.578125,0.34375 1.578125,0.34375 0.8125,0 2.171875,-0.34375 0.546875,-0.14062 0.765625,-0.14062 0.296875,0 0.5,0.20312 0.203125,0.20313 0.203125,0.51563 0,0.29687 -0.21875,0.48437 -0.296875,0.26563 -1.40625,0.51563 -1.09375,0.23437 -2.125,0.23437 -1.765625,0 -2.828125,-0.98437 -1.046875,-1 -1.046875,-2.45313 0,-1.54687 1.140625,-2.51562 1.140625,-0.96875 2.640625,-0.96875 0.890625,0 1.640625,0.3125 0.75,0.3125 1.109375,0.67187 0.515625,0.53125 0.84375,1.3125 0.234375,0.54688 0.234375,1.26563 z m -1.625,-1.46875 q -0.328125,-0.625 -0.875,-0.9375 -0.546875,-0.3125 -1.296875,-0.3125 -0.75,0 -1.296875,0.3125 -0.53125,0.3125 -0.875,0.9375 z m 8.326431,-0.8125 q -0.359375,-0.21875 -0.75,-0.32813 -0.390625,-0.10937 -0.828125,-0.10937 -0.84375,0 -1.34375,0.28125 -0.234375,0.10937 -0.234375,0.25 0,0.17187 0.3125,0.32812 0.21875,0.10938 1.015625,0.21875 1.46875,0.20313 2.03125,0.40625 0.75,0.26563 1.15625,0.79688 0.40625,0.51562 0.40625,1.09375 0,0.78125 -0.6875,1.3125 -1,0.76562 -2.578125,0.76562 -0.640625,0 -1.1875,-0.10937 -0.53125,-0.10938 -0.984375,-0.32813 -0.109375,0.0937 -0.234375,0.15625 -0.125,0.0469 -0.25,0.0469 -0.34375,0 -0.546875,-0.21875 -0.203125,-0.23438 -0.203125,-0.76563 v -0.5 q 0,-0.53125 0.203125,-0.75 0.203125,-0.23437 0.53125,-0.23437 0.265625,0 0.4375,0.15625 0.1875,0.14062 0.296875,0.5 0.328125,0.28125 0.796875,0.4375 0.484375,0.14062 1.09375,0.14062 1.015625,0 1.5625,-0.3125 0.265625,-0.15625 0.265625,-0.32812 0,-0.28125 -0.375,-0.46875 -0.375,-0.1875 -1.5625,-0.3125 -1.765625,-0.1875 -2.375,-0.71875 -0.59375,-0.53125 -0.59375,-1.29688 0,-0.78125 0.671875,-1.29687 0.90625,-0.71875 2.359375,-0.71875 0.515625,0 0.984375,0.0937 0.46875,0.0937 0.890625,0.29687 0.140625,-0.0937 0.25,-0.14062 0.125,-0.0625 0.21875,-0.0625 0.3125,0 0.5,0.23437 0.203125,0.21875 0.203125,0.75 v 0.35938 q 0,0.46875 -0.109375,0.64062 -0.234375,0.34375 -0.625,0.34375 -0.265625,0 -0.46875,-0.17187 -0.1875,-0.17188 -0.25,-0.4375 z m 8.795181,0 q -0.359375,-0.21875 -0.75,-0.32813 -0.390625,-0.10937 -0.828125,-0.10937 -0.84375,0 -1.34375,0.28125 -0.234375,0.10937 -0.234375,0.25 0,0.17187 0.3125,0.32812 0.21875,0.10938 1.015625,0.21875 1.46875,0.20313 2.03125,0.40625 0.75,0.26563 1.15625,0.79688 0.40625,0.51562 0.40625,1.09375 0,0.78125 -0.6875,1.3125 -1,0.76562 -2.578125,0.76562 -0.640625,0 -1.1875,-0.10937 -0.53125,-0.10938 -0.984375,-0.32813 -0.109375,0.0937 -0.234375,0.15625 -0.125,0.0469 -0.25,0.0469 -0.34375,0 -0.546875,-0.21875 -0.203125,-0.23438 -0.203125,-0.76563 v -0.5 q 0,-0.53125 0.203125,-0.75 0.203125,-0.23437 0.53125,-0.23437 0.265625,0 0.4375,0.15625 0.1875,0.14062 0.296875,0.5 0.328125,0.28125 0.796875,0.4375 0.484375,0.14062 1.09375,0.14062 1.015625,0 1.5625,-0.3125 0.265625,-0.15625 0.265625,-0.32812 0,-0.28125 -0.375,-0.46875 -0.375,-0.1875 -1.5625,-0.3125 -1.765625,-0.1875 -2.375,-0.71875 -0.59375,-0.53125 -0.59375,-1.29688 0,-0.78125 0.671875,-1.29687 0.90625,-0.71875 2.359375,-0.71875 0.515625,0 0.984375,0.0937 0.46875,0.0937 0.890625,0.29687 0.140625,-0.0937 0.25,-0.14062 0.125,-0.0625 0.21875,-0.0625 0.3125,0 0.5,0.23437 0.203125,0.21875 0.203125,0.75 v 0.35938 q 0,0.46875 -0.109375,0.64062 -0.234375,0.34375 -0.625,0.34375 -0.265625,0 -0.46875,-0.17187 -0.1875,-0.17188 -0.25,-0.4375 z m 8.529556,4.78125 v -0.34375 q -0.546875,0.29687 -1.21875,0.4375 -0.671875,0.15625 -1.203125,0.15625 -1.1875,0 -1.921875,-0.625 -0.734375,-0.64063 -0.734375,-1.39063 0,-0.92187 0.9375,-1.70312 0.9375,-0.79688 2.59375,-0.79688 0.671875,0 1.546875,0.14063 v -0.35938 q 0,-0.32812 -0.28125,-0.53125 -0.28125,-0.20312 -1.078125,-0.20312 -0.65625,0 -1.6875,0.25 -0.390625,0.0937 -0.609375,0.0937 -0.28125,0 -0.5,-0.20313 -0.203125,-0.21875 -0.203125,-0.54687 0,-0.1875 0.07813,-0.3125 0.07813,-0.14063 0.203125,-0.21875 0.125,-0.0937 0.53125,-0.20313 0.546875,-0.15625 1.109375,-0.23437 0.5625,-0.0937 1.03125,-0.0937 1.359375,0 2.109375,0.59375 0.765625,0.57812 0.765625,1.60937 v 3.01563 h 0.25 q 0.53125,0 0.75,0.20312 0.234375,0.20313 0.234375,0.53125 0,0.32813 -0.234375,0.53125 -0.21875,0.20313 -0.75,0.20313 z m 0,-2.625 q -0.875,-0.17188 -1.625,-0.17188 -0.890625,0 -1.53125,0.4375 -0.40625,0.28125 -0.40625,0.5625 0,0.20313 0.1875,0.34375 0.359375,0.23438 0.984375,0.23438 0.53125,0 1.203125,-0.20313 0.671875,-0.21875 1.1875,-0.57812 z m 9.092056,-3.4375 v -0.4375 h 1.71875 q 0.53125,0 0.75,0.20312 0.21875,0.20313 0.21875,0.53125 0,0.32813 -0.21875,0.53125 -0.21875,0.20313 -0.75,0.20313 h -0.25 v 5.34375 q 0,0.76562 -0.328125,1.34375 -0.328125,0.57812 -1,0.98437 -0.671875,0.42188 -1.515625,0.42188 h -1.65625 q -0.53125,0 -0.765625,-0.20313 -0.21875,-0.20312 -0.21875,-0.53125 0,-0.32812 0.21875,-0.53125 0.234375,-0.20312 0.765625,-0.20312 h 1.609375 q 0.671875,0 1.046875,-0.375 0.375,-0.35938 0.375,-0.90625 v -0.71875 q -0.484375,0.3125 -1,0.46875 -0.5,0.15625 -1.03125,0.15625 -1.5,0 -2.515625,-1 -1,-1 -1,-2.45313 0,-1.48437 1,-2.48437 1.015625,-1 2.515625,-1 0.5625,0 1.0625,0.17187 0.5,0.15625 0.96875,0.48438 z m -0.01563,2.8125 q 0,-0.8125 -0.59375,-1.40625 -0.59375,-0.59375 -1.4375,-0.59375 -0.828125,0 -1.4375,0.59375 -0.59375,0.59375 -0.59375,1.40625 0,0.8125 0.59375,1.40625 0.609375,0.59375 1.4375,0.59375 0.84375,0 1.4375,-0.59375 0.59375,-0.59375 0.59375,-1.40625 z m 10.873312,0.75 h -6.015631 q 0.234375,0.5625 0.8125,0.92187 0.578121,0.34375 1.578131,0.34375 0.8125,0 2.17188,-0.34375 0.54687,-0.14062 0.76562,-0.14062 0.29688,0 0.5,0.20312 0.20313,0.20313 0.20313,0.51563 0,0.29687 -0.21875,0.48437 -0.29688,0.26563 -1.40625,0.51563 -1.09375,0.23437 -2.125,0.23437 -1.765636,0 -2.828136,-0.98437 -1.046875,-1 -1.046875,-2.45313 0,-1.54687 1.140625,-2.51562 1.140625,-0.96875 2.640636,-0.96875 0.89062,0 1.64062,0.3125 0.75,0.3125 1.10938,0.67187 0.51562,0.53125 0.84375,1.3125 0.23437,0.54688 0.23437,1.26563 z m -1.625,-1.46875 q -0.32812,-0.625 -0.875,-0.9375 -0.54687,-0.3125 -1.29687,-0.3125 -0.75001,0 -1.296886,0.3125 -0.53125,0.3125 -0.875,0.9375 z" />
  <path
     style="fill:#000000;fill-rule:nonzero"
     inkscape:connector-curvature="0"
     id="path53"
     d="m 117.66971,197.9107 v 3.53125 h 2.10937 q 0.21875,0 0.3125,0.0781 0.0937,0.0781 0.0937,0.21875 0,0.14063 -0.0937,0.23438 -0.0937,0.0781 -0.3125,0.0781 h -3.54687 q -0.21875,0 -0.3125,-0.0781 -0.0937,-0.0937 -0.0937,-0.23438 0,-0.14062 0.0937,-0.21875 0.0937,-0.0781 0.3125,-0.0781 h 0.82812 v -7.34375 h -0.82812 q -0.21875,0 -0.3125,-0.0781 -0.0937,-0.0937 -0.0937,-0.23437 0,-0.14063 0.10937,-0.23438 0.0781,-0.0625 0.29688,-0.0625 h 6.76562 v 2.10938 q 0,0.21875 -0.0937,0.3125 -0.0781,0.0937 -0.20312,0.0937 -0.14063,0 -0.23438,-0.0937 -0.0781,-0.0937 -0.0781,-0.3125 v -1.5 h -4.71875 v 3.20312 h 2.20312 v -0.70312 q 0,-0.21875 0.0781,-0.3125 0.0937,-0.0937 0.23437,-0.0937 0.14063,0 0.21875,0.0937 0.0937,0.0937 0.0937,0.3125 v 2.01562 q 0,0.21875 -0.0937,0.3125 -0.0781,0.0937 -0.21875,0.0937 -0.14062,0 -0.23437,-0.0937 -0.0781,-0.0937 -0.0781,-0.3125 v -0.70312 z m 13.92334,0.98437 q 0,1.40625 -1.01563,2.40625 -1,0.98438 -2.42187,0.98438 -1.4375,0 -2.4375,-1 -1,-1 -1,-2.39063 0,-1.40625 1,-2.40625 1,-1 2.4375,-1 1.42187,0 2.42187,1 1.01563,0.98438 1.01563,2.40625 z m -0.625,0 q 0,-1.15625 -0.82813,-1.96875 -0.8125,-0.8125 -1.98437,-0.8125 -1.17187,0 -2,0.8125 -0.82812,0.8125 -0.82812,1.96875 0,1.14063 0.82812,1.96875 0.82813,0.8125 2,0.8125 1.17187,0 1.98437,-0.8125 0.82813,-0.8125 0.82813,-1.96875 z m 9.62646,0 q 0,1.40625 -1.01562,2.40625 -1,0.98438 -2.42188,0.98438 -1.4375,0 -2.4375,-1 -1,-1 -1,-2.39063 0,-1.40625 1,-2.40625 1,-1 2.4375,-1 1.42188,0 2.42188,1 1.01562,0.98438 1.01562,2.40625 z m -0.625,0 q 0,-1.15625 -0.82812,-1.96875 -0.8125,-0.8125 -1.98438,-0.8125 -1.17187,0 -2,0.8125 -0.82812,0.8125 -0.82812,1.96875 0,1.14063 0.82812,1.96875 0.82813,0.8125 2,0.8125 1.17188,0 1.98438,-0.8125 0.82812,-0.8125 0.82812,-1.96875 z m 4.18897,-0.67187 v 3.21875 h 1.14062 q 0.21875,0 0.3125,0.0781 0.0937,0.0781 0.0937,0.21875 0,0.14063 -0.0937,0.23438 -0.0937,0.0781 -0.3125,0.0781 h -2.57812 q -0.23438,0 -0.32813,-0.0781 -0.0937,-0.0937 -0.0937,-0.23438 0,-0.14062 0.0937,-0.21875 0.0937,-0.0781 0.32813,-0.0781 h 0.8125 v -7.34375 h -0.8125 q -0.23438,0 -0.32813,-0.0781 -0.0937,-0.0937 -0.0937,-0.23437 0,-0.14063 0.0937,-0.21875 0.0937,-0.0781 0.32813,-0.0781 h 3.71875 q 1.14062,0 1.92187,0.73438 0.79688,0.71875 0.79688,1.625 0,0.67187 -0.48438,1.25 -0.48437,0.57812 -1.625,0.96875 0.65625,0.45312 1.125,1.03125 0.46875,0.5625 1.5,2.34375 h 0.46875 q 0.21875,0 0.3125,0.0781 0.0937,0.0781 0.0937,0.21875 0,0.14063 -0.0937,0.23438 -0.0937,0.0781 -0.3125,0.0781 h -0.82812 q -1.14063,-2.04687 -1.76563,-2.73437 -0.625,-0.70313 -1.4375,-1.09375 z m 0,-0.60938 h 1.67187 q 0.8125,0 1.46875,-0.29687 0.65625,-0.29688 0.95313,-0.6875 0.29687,-0.39063 0.29687,-0.79688 0,-0.625 -0.625,-1.17187 -0.625,-0.5625 -1.5,-0.5625 h -2.26562 z m 14.32959,1.40625 h -6.26563 q 0.15625,1.20313 1,1.9375 0.84375,0.71875 2.07813,0.71875 0.6875,0 1.4375,-0.21875 0.75,-0.23437 1.23437,-0.60937 0.14063,-0.10938 0.23438,-0.10938 0.125,0 0.20312,0.0937 0.0937,0.0937 0.0937,0.21875 0,0.125 -0.10937,0.23438 -0.35938,0.375 -1.26563,0.6875 -0.89062,0.3125 -1.82812,0.3125 -1.59375,0 -2.65625,-1.03125 -1.04688,-1.03125 -1.04688,-2.5 0,-1.34375 0.98438,-2.29688 1,-0.96875 2.46875,-0.96875 1.5,0 2.46875,0.98438 0.98437,0.98437 0.96875,2.54687 z m -0.625,-0.60937 q -0.17188,-1.03125 -0.95313,-1.65625 -0.78125,-0.64063 -1.85937,-0.64063 -1.07813,0 -1.85938,0.625 -0.76562,0.625 -0.96875,1.67188 z m 8.32959,-2.29688 q 0,-0.21875 0.0781,-0.3125 0.0937,-0.0937 0.23438,-0.0937 0.14062,0 0.21875,0.0937 0.0937,0.0937 0.0937,0.32813 v 1.04687 q 0,0.21875 -0.0937,0.32813 -0.0781,0.0937 -0.21875,0.0937 -0.125,0 -0.21875,-0.0781 -0.0781,-0.0937 -0.0937,-0.28125 -0.0469,-0.4375 -0.45313,-0.71875 -0.59375,-0.40625 -1.59375,-0.40625 -1.03125,0 -1.59375,0.42188 -0.4375,0.3125 -0.4375,0.70312 0,0.4375 0.51563,0.71875 0.34375,0.21875 1.32812,0.32813 1.28125,0.125 1.78125,0.3125 0.71875,0.25 1.0625,0.70312 0.34375,0.45313 0.34375,0.98438 0,0.78125 -0.75,1.39062 -0.75,0.60938 -2.21875,0.60938 -1.45312,0 -2.39062,-0.73438 0,0.25 -0.0312,0.32813 -0.0156,0.0625 -0.0937,0.125 -0.0781,0.0469 -0.17188,0.0469 -0.14062,0 -0.23437,-0.0937 -0.0781,-0.0937 -0.0781,-0.3125 v -1.26562 q 0,-0.21875 0.0781,-0.3125 0.0937,-0.10938 0.23437,-0.10938 0.125,0 0.21875,0.0937 0.0937,0.0937 0.0937,0.25 0,0.34375 0.17188,0.5625 0.25,0.35938 0.8125,0.59375 0.5625,0.21875 1.375,0.21875 1.20312,0 1.78125,-0.4375 0.59375,-0.45312 0.59375,-0.95312 0,-0.57813 -0.59375,-0.92188 -0.60938,-0.34375 -1.75,-0.45312 -1.14063,-0.125 -1.64063,-0.3125 -0.5,-0.1875 -0.78125,-0.5625 -0.28125,-0.39063 -0.28125,-0.82813 0,-0.78125 0.78125,-1.25 0.78125,-0.46875 1.84375,-0.46875 1.28125,0 2.07813,0.625 z m 4.65771,-0.40625 v 1.125 q 0.54688,-0.67187 1.17188,-1 0.625,-0.34375 1.48437,-0.34375 0.90625,0 1.67188,0.42188 0.78125,0.42187 1.20312,1.1875 0.42188,0.75 0.42188,1.59375 0,1.32812 -0.95313,2.26562 -0.95312,0.9375 -2.32812,0.9375 -1.65625,0 -2.67188,-1.34375 v 3.71875 h 1.48438 q 0.21875,0 0.3125,0.0781 0.10937,0.0781 0.10937,0.21875 0,0.14062 -0.10937,0.21875 -0.0937,0.0937 -0.3125,0.0937 h -2.9375 q -0.21875,0 -0.3125,-0.0937 -0.0937,-0.0781 -0.0937,-0.21875 0,-0.14063 0.0937,-0.21875 0.0937,-0.0781 0.3125,-0.0781 h 0.82812 v -7.9375 h -0.82812 q -0.21875,0 -0.3125,-0.0781 -0.0937,-0.0937 -0.0937,-0.23438 0,-0.14062 0.0937,-0.21875 0.0937,-0.0937 0.3125,-0.0937 z m 5.32813,2.98438 q 0,-1.0625 -0.78125,-1.8125 -0.76563,-0.76563 -1.875,-0.76563 -1.125,0 -1.90625,0.76563 -0.76563,0.75 -0.76563,1.8125 0,1.0625 0.76563,1.82812 0.78125,0.75 1.90625,0.75 1.10937,0 1.875,-0.75 0.78125,-0.76562 0.78125,-1.82812 z" />
  <path
     style="fill:#000000;fill-rule:nonzero"
     inkscape:connector-curvature="0"
     id="path55"
     d="m 48.226972,216.4107 q 0.375,0.26562 0.5,0.51562 0.171875,0.32813 0.171875,0.78125 v 2.64063 q 0,0.40625 0.234375,0.67187 0.25,0.28125 0.609375,0.3125 0.21875,0.0156 0.296875,0.0937 0.09375,0.0781 0.09375,0.21875 0,0.14063 -0.09375,0.21875 -0.09375,0.0781 -0.28125,0.0781 -0.578125,0 -0.96875,-0.35938 -0.515625,-0.5 -0.515625,-1.23437 v -2.64063 q 0,-0.39062 -0.25,-0.65625 -0.234375,-0.28125 -0.609375,-0.3125 -0.203125,-0.0312 -0.28125,-0.10937 -0.07813,-0.0781 -0.07813,-0.21875 0,-0.14063 0.07813,-0.21875 0.07813,-0.0937 0.28125,-0.10938 0.390625,-0.0312 0.625,-0.29687 0.234375,-0.28125 0.234375,-0.6875 v -2.64063 q 0,-0.6875 0.4375,-1.14062 0.4375,-0.45313 1.0625,-0.45313 0.171875,0 0.265625,0.0937 0.09375,0.0781 0.09375,0.20313 0,0.14062 -0.09375,0.21875 -0.0625,0.0781 -0.296875,0.10937 -0.375,0.0312 -0.609375,0.3125 -0.234375,0.26563 -0.234375,0.65625 v 2.64063 q 0,0.46875 -0.15625,0.75 -0.140625,0.28125 -0.515625,0.5625 z" />
  <path
     style="fill:#06960e;fill-rule:nonzero"
     inkscape:connector-curvature="0"
     id="path57"
     d="m 80.200118,228.62945 -7.046875,10.35937 q -0.109375,0.17188 -0.1875,0.21875 -0.07813,0.0469 -0.171875,0.0469 -0.109375,0 -0.1875,-0.0625 -0.0625,-0.0625 -0.0625,-0.17188 0,-0.10937 0.125,-0.28125 l 7.03125,-10.35937 q 0.109375,-0.17188 0.1875,-0.21875 0.09375,-0.0469 0.1875,-0.0469 0.109375,0 0.171875,0.0781 0.07813,0.0625 0.07813,0.15625 0,0.0937 -0.125,0.28125 z m 8.795181,0 -7.046875,10.35937 q -0.109375,0.17188 -0.1875,0.21875 -0.07813,0.0469 -0.171875,0.0469 -0.109375,0 -0.1875,-0.0625 -0.0625,-0.0625 -0.0625,-0.17188 0,-0.10937 0.125,-0.28125 l 7.03125,-10.35937 q 0.109375,-0.17188 0.1875,-0.21875 0.09375,-0.0469 0.1875,-0.0469 0.109375,0 0.171875,0.0781 0.07813,0.0625 0.07813,0.15625 0,0.0937 -0.125,0.28125 z m 13.668491,3.82812 -1.0625,5 h 2.64062 q 0.20313,0 0.26563,0.0625 0.0781,0.0469 0.0781,0.17188 0,0.14062 -0.125,0.25 -0.10937,0.10937 -0.34375,0.10937 h -4.703123 q -0.203125,0 -0.28125,-0.0625 -0.0625,-0.0625 -0.0625,-0.1875 0,-0.14062 0.109375,-0.23437 0.125,-0.10938 0.359375,-0.10938 h 1.453123 l 1.0625,-5 h -1.29687 q -0.20313,0 -0.28125,-0.0625 -0.0625,-0.0625 -0.0625,-0.17187 0,-0.14063 0.10937,-0.25 0.125,-0.125 0.35938,-0.125 h 1.29687 l 0.20313,-0.90625 q 0.15625,-0.76563 0.89062,-1.3125 0.73438,-0.5625 1.76563,-0.5625 0.78125,0 1.70312,0.14062 0.39063,0.0625 0.45313,0.14063 0.0625,0.0625 0.0625,0.15625 0,0.14062 -0.10938,0.25 -0.10937,0.10937 -0.28125,0.10937 -0.0469,0 -0.1875,-0.0156 -1.03125,-0.17188 -1.76562,-0.17188 -0.8125,0 -1.32813,0.39063 -0.5,0.39062 -0.59375,0.875 l -0.20312,0.90625 h 2.8125 q 0.20312,0 0.26562,0.0625 0.0781,0.0781 0.0781,0.1875 0,0.14062 -0.125,0.25 -0.10938,0.10937 -0.34375,0.10937 z m 10.26393,-3.6875 -0.32813,1.54688 h -0.875 l 0.32813,-1.54688 z m -0.625,3.07813 -1.1875,5.60937 h 2.35937 q 0.20313,0 0.26563,0.0625 0.0781,0.0469 0.0781,0.17188 0,0.14062 -0.125,0.25 -0.10937,0.10937 -0.34375,0.10937 h -5.32812 q -0.20313,0 -0.28125,-0.0625 -0.0625,-0.0625 -0.0625,-0.1875 0,-0.14062 0.10937,-0.23437 0.125,-0.10938 0.35938,-0.10938 h 2.375 l 1.04687,-5 h -1.75 q -0.20312,0 -0.28125,-0.0625 -0.0625,-0.0625 -0.0625,-0.17187 0,-0.14063 0.10938,-0.25 0.125,-0.125 0.35937,-0.125 z m 11.04518,3.25 h -6.125 q -0.0156,0.21875 -0.0156,0.32812 0,0.98438 0.65625,1.625 0.67187,0.64063 1.8125,0.64063 0.67187,0 1.4375,-0.21875 0.78125,-0.21875 1.34375,-0.59375 0.17187,-0.10938 0.26562,-0.10938 0.0937,0 0.15625,0.0781 0.0625,0.0625 0.0625,0.17187 0,0.125 -0.10937,0.23438 -0.32813,0.35937 -1.32813,0.70312 -0.98437,0.32813 -2,0.32813 -1.3125,0 -2.10937,-0.78125 -0.79688,-0.78125 -0.79688,-1.98438 0,-0.79687 0.34375,-1.5 0.34375,-0.70312 0.90625,-1.20312 0.5625,-0.51563 1.29688,-0.84375 0.73437,-0.32813 1.59375,-0.32813 1.23437,0 1.98437,0.71875 0.75,0.71875 0.75,1.84375 0,0.375 -0.125,0.89063 z m -0.48437,-0.60938 q 0.0469,-0.98437 -0.57813,-1.625 -0.64062,-0.60937 -1.6875,-0.60937 -1.03125,0 -1.9375,0.60937 -0.89062,0.59375 -1.29687,1.625 z m 7.6233,-5.42187 -1.78125,8.39062 h 2.35938 q 0.20312,0 0.26562,0.0625 0.0781,0.0469 0.0781,0.17188 0,0.14062 -0.125,0.25 -0.10938,0.10937 -0.34375,0.10937 h -5.32813 q -0.20312,0 -0.28125,-0.0625 -0.0625,-0.0625 -0.0625,-0.1875 0,-0.14062 0.10938,-0.23437 0.125,-0.10938 0.35937,-0.10938 h 2.35938 l 1.65625,-7.78125 h -1.73438 q -0.20312,0 -0.28125,-0.0625 -0.0625,-0.0625 -0.0625,-0.17187 0,-0.15625 0.10938,-0.26563 0.125,-0.10937 0.35937,-0.10937 z m 11.42018,0 -1.78125,8.39062 h 0.79688 q 0.20312,0 0.26562,0.0625 0.0781,0.0469 0.0781,0.17188 0,0.14062 -0.125,0.25 -0.10938,0.10937 -0.34375,0.10937 h -1.40625 l 0.25,-1.1875 q -1.34375,1.42188 -2.98438,1.42188 -1.09375,0 -1.8125,-0.71875 -0.70312,-0.73438 -0.70312,-1.90625 0,-0.95313 0.57812,-1.9375 0.57813,-0.98438 1.51563,-1.53125 0.9375,-0.54688 1.875,-0.54688 1.5625,0 2.34375,1.42188 l 0.71875,-3.39063 h -0.8125 q -0.20313,0 -0.28125,-0.0625 -0.0625,-0.0625 -0.0625,-0.17187 0,-0.15625 0.10937,-0.26563 0.125,-0.10937 0.375,-0.10937 z m -5.07812,8.625 q 0.64062,0 1.20312,-0.26563 0.57813,-0.28125 1.03125,-0.71875 0.46875,-0.45312 0.75,-1.07812 0.29688,-0.64063 0.29688,-1.29688 0,-0.89062 -0.59375,-1.48437 -0.59375,-0.59375 -1.48438,-0.59375 -1.26562,0 -2.28125,1.01562 -1,1 -1,2.28125 0,0.9375 0.59375,1.54688 0.59375,0.59375 1.48438,0.59375 z m 12.2483,-5.4375 q 0.0469,-0.21875 0.14063,-0.3125 0.10937,-0.0937 0.25,-0.0937 0.0937,0 0.15625,0.0781 0.0781,0.0625 0.0781,0.15625 0,0.0625 -0.0312,0.17188 l -0.20312,1.03125 q -0.0625,0.21875 -0.17188,0.3125 -0.0937,0.0937 -0.23437,0.0937 -0.0937,0 -0.17188,-0.0625 -0.0625,-0.0625 -0.0625,-0.15625 l 0.0156,-0.10938 q 0,-0.0625 0,-0.10937 0,-0.39063 -0.34375,-0.64063 -0.5,-0.35937 -1.42188,-0.35937 -1.10937,0 -1.75,0.46875 -0.48437,0.34375 -0.48437,0.73437 0,0.39063 0.42187,0.64063 0.29688,0.17187 1.29688,0.28125 1,0.10937 1.42187,0.25 0.60938,0.1875 0.89063,0.5625 0.29687,0.35937 0.29687,0.8125 0,0.53125 -0.39062,1.0625 -0.375,0.53125 -1.17188,0.875 -0.79687,0.34375 -1.79687,0.34375 -0.70313,0 -1.25,-0.1875 -0.54688,-0.17188 -0.92188,-0.53125 -0.0625,0.29687 -0.14062,0.375 -0.125,0.10937 -0.26563,0.10937 -0.0937,0 -0.17187,-0.0625 -0.0625,-0.0625 -0.0625,-0.15625 0,-0.0625 0.0156,-0.1875 l 0.26563,-1.23437 q 0.0469,-0.21875 0.15625,-0.3125 0.10937,-0.0937 0.23437,-0.0937 0.10938,0 0.17188,0.0781 0.0781,0.0625 0.0781,0.15625 0,0.0625 -0.0312,0.17188 -0.0156,0.10937 -0.0156,0.15625 0,0.40625 0.42187,0.71875 0.5625,0.40625 1.625,0.40625 1.28125,0 1.95313,-0.5 0.67187,-0.51563 0.67187,-1.01563 0,-0.28125 -0.20312,-0.53125 -0.1875,-0.26562 -0.59375,-0.42187 -0.39063,-0.15625 -1.3125,-0.25 -0.90625,-0.0937 -1.32813,-0.23438 -0.42187,-0.15625 -0.65625,-0.45312 -0.23437,-0.3125 -0.23437,-0.6875 0,-0.45313 0.3125,-0.89063 0.3125,-0.4375 1.03125,-0.75 0.71875,-0.3125 1.60937,-0.3125 0.625,0 1.09375,0.15625 0.48438,0.14063 0.8125,0.45313 z m 14.60599,4.07812 h 0.25 q 0.34375,0 0.5625,0.21875 0.23438,0.20313 0.23438,0.54688 0,0.45312 -0.375,0.8125 -0.35938,0.35937 -0.82813,0.35937 h -0.26562 q -0.34375,0 -0.5625,-0.21875 -0.21875,-0.21875 -0.21875,-0.5625 0,-0.45312 0.35937,-0.79687 0.375,-0.35938 0.84375,-0.35938 z m 8.79518,0 h 0.25 q 0.34375,0 0.5625,0.21875 0.23438,0.20313 0.23438,0.54688 0,0.45312 -0.375,0.8125 -0.35938,0.35937 -0.82813,0.35937 h -0.26562 q -0.34375,0 -0.5625,-0.21875 -0.21875,-0.21875 -0.21875,-0.5625 0,-0.45312 0.35937,-0.79687 0.375,-0.35938 0.84375,-0.35938 z m 8.79518,0 h 0.25 q 0.34375,0 0.5625,0.21875 0.23438,0.20313 0.23438,0.54688 0,0.45312 -0.375,0.8125 -0.35938,0.35937 -0.82813,0.35937 h -0.26562 q -0.34375,0 -0.5625,-0.21875 -0.21875,-0.21875 -0.21875,-0.5625 0,-0.45312 0.35937,-0.79687 0.375,-0.35938 0.84375,-0.35938 z" />
  <path
     style="fill:#000000;fill-rule:nonzero"
     inkscape:connector-curvature="0"
     id="path59"
     d="m 48.945722,252.4107 q -0.375,-0.28125 -0.5,-0.53125 -0.15625,-0.32813 -0.15625,-0.78125 v -2.64063 q 0,-0.40625 -0.25,-0.67187 -0.234375,-0.28125 -0.59375,-0.29688 -0.234375,-0.0312 -0.3125,-0.0937 -0.09375,-0.0937 -0.09375,-0.23437 0,-0.125 0.09375,-0.20313 0.09375,-0.0937 0.28125,-0.0937 0.578125,0 0.96875,0.375 0.515625,0.48438 0.515625,1.21875 v 2.64063 q 0,0.40625 0.234375,0.6875 0.25,0.26562 0.625,0.29687 0.203125,0.0156 0.28125,0.10938 0.09375,0.0781 0.09375,0.21875 0,0.14062 -0.09375,0.21875 -0.07813,0.0781 -0.28125,0.10937 -0.375,0.0312 -0.625,0.3125 -0.234375,0.26563 -0.234375,0.65625 v 2.64063 q 0,0.68748 -0.4375,1.14061 -0.4375,0.46875 -1.046875,0.46875 -0.1875,0 -0.28125,-0.0937 -0.09375,-0.0781 -0.09375,-0.21875 0,-0.14063 0.09375,-0.21875 0.07813,-0.0781 0.3125,-0.0937 0.359375,-0.0312 0.59375,-0.3125 0.25,-0.26563 0.25,-0.67186 v -2.64063 q 0,-0.45312 0.140625,-0.73437 0.140625,-0.29688 0.515625,-0.5625 z" />
  <path
     style="fill:#d9f5d3;fill-rule:evenodd"
     inkscape:connector-curvature="0"
     id="path61"
     d="m 49.688536,278.16014 v 0 c 0,-2.215 1.795597,-4.01059 4.010578,-4.01059 h 81.805626 c 1.06367,0 2.08378,0.42255 2.8359,1.17468 0.75214,0.75214 1.17467,1.77225 1.17467,2.83591 v 16.04184 c 0,2.21497 -1.79559,4.01056 -4.01057,4.01056 H 53.699114 c -2.214981,0 -4.010578,-1.79559 -4.010578,-4.01056 z" />
  <path
     style="fill-rule:evenodd;stroke:#595959;stroke-width:1;stroke-linecap:butt;stroke-linejoin:round"
     inkscape:connector-curvature="0"
     id="path63"
     d="m 49.688536,278.16014 v 0 c 0,-2.215 1.795597,-4.01059 4.010578,-4.01059 h 81.805626 c 1.06367,0 2.08378,0.42255 2.8359,1.17468 0.75214,0.75214 1.17467,1.77225 1.17467,2.83591 v 16.04184 c 0,2.21497 -1.79559,4.01056 -4.01057,4.01056 H 53.699114 c -2.214981,0 -4.010578,-1.79559 -4.010578,-4.01056 z" />
  <path
     style="fill:#d9f5d3;fill-rule:evenodd"
     inkscape:connector-curvature="0"
     id="path65"
     d="m 60.189848,284.58796 v 0 c 0,-2.215 1.795597,-4.01059 4.010578,-4.01059 h 81.805624 c 1.06367,0 2.08378,0.42255 2.83591,1.17468 0.75213,0.75214 1.17466,1.77222 1.17466,2.83591 v 16.04184 c 0,2.21497 -1.79559,4.01056 -4.01057,4.01056 H 64.200426 c -2.214981,0 -4.010578,-1.79559 -4.010578,-4.01056 z" />
  <path
     style="fill-rule:evenodd;stroke:#595959;stroke-width:1;stroke-linecap:butt;stroke-linejoin:round"
     inkscape:connector-curvature="0"
     id="path67"
     d="m 60.189848,284.58796 v 0 c 0,-2.215 1.795597,-4.01059 4.010578,-4.01059 h 81.805624 c 1.06367,0 2.08378,0.42255 2.83591,1.17468 0.75213,0.75214 1.17466,1.77222 1.17466,2.83591 v 16.04184 c 0,2.21497 -1.79559,4.01056 -4.01057,4.01056 H 64.200426 c -2.214981,0 -4.010578,-1.79559 -4.010578,-4.01056 z" />
  <path
     style="fill:#d9f5d3;fill-rule:evenodd"
     inkscape:connector-curvature="0"
     id="path69"
     d="m 69.672788,291.82941 v 0 c 0,-2.21497 1.795601,-4.01056 4.010582,-4.01056 h 81.80561 c 1.06368,0 2.08377,0.42252 2.83591,1.17465 0.75214,0.75214 1.17467,1.77225 1.17467,2.83591 v 16.04184 c 0,2.215 -1.7956,4.01059 -4.01058,4.01059 H 73.68337 c -2.214981,0 -4.010582,-1.79559 -4.010582,-4.01059 z" />
  <path
     style="fill-rule:evenodd;stroke:#595959;stroke-width:1;stroke-linecap:butt;stroke-linejoin:round"
     inkscape:connector-curvature="0"
     id="path71"
     d="m 69.672788,291.82941 v 0 c 0,-2.21497 1.795601,-4.01056 4.010582,-4.01056 h 81.80561 c 1.06368,0 2.08377,0.42252 2.83591,1.17465 0.75214,0.75214 1.17467,1.77225 1.17467,2.83591 v 16.04184 c 0,2.215 -1.7956,4.01059 -4.01058,4.01059 H 73.68337 c -2.214981,0 -4.010582,-1.79559 -4.010582,-4.01059 z" />
  <path
     style="fill:#fce5cd;fill-rule:evenodd"
     inkscape:connector-curvature="0"
     id="path73"
     d="m 50.607611,307.43491 v 0 c 0,-2.21497 1.795597,-4.01056 4.010578,-4.01056 h 81.805601 c 1.06368,0 2.08379,0.42252 2.83591,1.17465 0.75213,0.75214 1.17468,1.77225 1.17468,2.83591 v 16.04184 c 0,2.215 -1.79561,4.01059 -4.01059,4.01059 H 54.618189 c -2.214981,0 -4.010578,-1.79559 -4.010578,-4.01059 z" />
  <path
     style="fill-rule:evenodd;stroke:#595959;stroke-width:1;stroke-linecap:butt;stroke-linejoin:round"
     inkscape:connector-curvature="0"
     id="path75"
     d="m 50.607611,307.43491 v 0 c 0,-2.21497 1.795597,-4.01056 4.010578,-4.01056 h 81.805601 c 1.06368,0 2.08379,0.42252 2.83591,1.17465 0.75213,0.75214 1.17468,1.77225 1.17468,2.83591 v 16.04184 c 0,2.215 -1.79561,4.01059 -4.01059,4.01059 H 54.618189 c -2.214981,0 -4.010578,-1.79559 -4.010578,-4.01059 z" />
  <path
     style="fill:#fce5cd;fill-rule:evenodd"
     inkscape:connector-curvature="0"
     id="path77"
     d="m 61.108923,313.86274 v 0 c 0,-2.21497 1.795597,-4.01059 4.010574,-4.01059 h 81.805613 c 1.06367,0 2.08379,0.42255 2.83591,1.17468 0.75213,0.75214 1.17468,1.77225 1.17468,2.83591 v 16.04184 c 0,2.21497 -1.79561,4.01059 -4.01059,4.01059 H 65.119497 c -2.214977,0 -4.010574,-1.79562 -4.010574,-4.01059 z" />
  <path
     style="fill-rule:evenodd;stroke:#595959;stroke-width:1;stroke-linecap:butt;stroke-linejoin:round"
     inkscape:connector-curvature="0"
     id="path79"
     d="m 61.108923,313.86274 v 0 c 0,-2.21497 1.795597,-4.01059 4.010574,-4.01059 h 81.805613 c 1.06367,0 2.08379,0.42255 2.83591,1.17468 0.75213,0.75214 1.17468,1.77225 1.17468,2.83591 v 16.04184 c 0,2.21497 -1.79561,4.01059 -4.01059,4.01059 H 65.119497 c -2.214977,0 -4.010574,-1.79562 -4.010574,-4.01059 z" />
  <path
     style="fill:#fce5cd;fill-rule:evenodd"
     inkscape:connector-curvature="0"
     id="path81"
     d="m 70.591864,321.10423 v 0 c 0,-2.215 1.795593,-4.01059 4.010574,-4.01059 h 81.805612 c 1.06368,0 2.08379,0.42255 2.83591,1.17468 0.75213,0.75211 1.17468,1.77222 1.17468,2.83591 v 16.04181 c 0,2.215 -1.79561,4.01059 -4.01059,4.01059 H 74.602438 c -2.214981,0 -4.010574,-1.79559 -4.010574,-4.01059 z" />
  <path
     style="fill-rule:evenodd;stroke:#595959;stroke-width:1;stroke-linecap:butt;stroke-linejoin:round"
     inkscape:connector-curvature="0"
     id="path83"
     d="m 70.591864,321.10423 v 0 c 0,-2.215 1.795593,-4.01059 4.010574,-4.01059 h 81.805612 c 1.06368,0 2.08379,0.42255 2.83591,1.17468 0.75213,0.75211 1.17468,1.77222 1.17468,2.83591 v 16.04181 c 0,2.215 -1.79561,4.01059 -4.01059,4.01059 H 74.602438 c -2.214981,0 -4.010574,-1.79559 -4.010574,-4.01059 z" />
</svg>
